<svg width="57" height="62" viewBox="0 0 57 62" fill="none" xmlns="http://www.w3.org/2000/svg">
<path d="M28.2528 43C27.6465 42.9966 27.0484 42.8416 26.5021 42.5464C25.9557 42.2512 25.4747 41.8232 25.094 41.2933L15.0953 27.6933C14.511 26.8746 14.1433 25.888 14.0342 24.846C13.925 23.8041 14.0787 22.7486 14.4778 21.8C14.8014 20.9755 15.3296 20.2731 15.9992 19.7766C16.6689 19.2801 17.4516 19.0105 18.254 19H38.2515C39.0539 19.0105 39.8367 19.2801 40.5063 19.7766C41.1759 20.2731 41.7041 20.9755 42.0278 21.8C42.4268 22.7486 42.5806 23.8041 42.4714 24.846C42.3622 25.888 41.9945 26.8746 41.4103 27.6933L31.4115 41.2933C31.0308 41.8232 30.5498 42.2512 30.0035 42.5464C29.4571 42.8416 28.8591 42.9966 28.2528 43Z" fill="#CB8325"/>
</svg>
