<svg width="57" height="62" viewBox="0 0 57 62" fill="none" xmlns="http://www.w3.org/2000/svg">
<path d="M38.2515 42.7795H18.254C17.4645 42.7808 16.6909 42.531 16.0226 42.0591C15.3543 41.5871 14.8187 40.9123 14.4778 40.1128C14.0787 39.1642 13.925 38.1087 14.0342 37.0668C14.1433 36.0248 14.511 35.0382 15.0953 34.2195L25.094 20.6195C25.4864 20.1111 25.9715 19.7034 26.5165 19.424C27.0615 19.1446 27.6537 19 28.2528 19C28.8519 19 29.444 19.1446 29.989 19.424C30.534 19.7034 31.0191 20.1111 31.4115 20.6195L41.4103 34.2195C41.9945 35.0382 42.3622 36.0248 42.4714 37.0668C42.5806 38.1087 42.4268 39.1642 42.0278 40.1128C41.6869 40.9123 41.1513 41.5871 40.483 42.0591C39.8147 42.531 39.041 42.7808 38.2515 42.7795Z" fill="#CB8325"/>
</svg>
