<svg width="60" height="60" viewBox="0 0 60 60" fill="none" xmlns="http://www.w3.org/2000/svg">
<circle cx="30" cy="30" r="20" fill="#A0322B" fill-opacity="0.85"/>
<path d="M30.9974 28.5C32.8383 28.5 34.3307 27.1941 34.3307 25.5833C34.3307 23.9725 32.8383 22.6666 30.9974 22.6666C29.1564 22.6666 27.6641 23.9725 27.6641 25.5833C27.6641 27.1941 29.1564 28.5 30.9974 28.5Z" stroke="white" stroke-width="2" stroke-linecap="round" stroke-linejoin="round"/>
<path d="M30.9973 18C29.1403 17.999 27.332 18.52 25.8389 19.4862C24.3458 20.4524 23.2468 21.8127 22.704 23.3667C21.2373 27.0183 21.664 27.9167 18.464 30.46C17.8264 30.9174 17.3658 31.5361 17.1455 32.2313C16.9251 32.9266 16.9557 33.6644 17.233 34.3438C17.5104 35.0233 18.0209 35.6111 18.6947 36.027C19.3686 36.4428 20.1728 36.6662 20.9973 36.6667C26.3307 36.6667 32.1973 34.5667 36.1973 31.65C37.6525 30.695 38.7274 29.3637 39.2698 27.8444C39.8122 26.3252 39.7945 24.6952 39.2193 23.1853C38.644 21.6753 37.5405 20.362 36.0648 19.4314C34.5892 18.5008 32.8163 18 30.9973 18Z" stroke="white" stroke-width="2" stroke-linecap="round" stroke-linejoin="round"/>
<path d="M38.9974 22.6666L41.9174 27.9166C42.1936 28.6707 42.3331 29.4581 42.3308 30.25C42.3318 31.4274 42.019 32.5888 41.4172 33.6419C40.8154 34.6951 39.9412 35.6109 38.8641 36.3166C34.8641 39.2333 28.9974 41.3333 23.6641 41.3333C22.9218 41.3324 22.1944 41.1508 21.5633 40.8087C20.9322 40.4667 20.4223 39.9778 20.0908 39.3966L17.5308 34.9166" stroke="white" stroke-width="2" stroke-linecap="round" stroke-linejoin="round"/>
</svg>
