<svg width="136" height="141" viewBox="0 0 136 141" fill="none" xmlns="http://www.w3.org/2000/svg">
<path d="M30.9401 132.188H99.3056C106.599 132.188 112.506 126.054 112.506 118.493V60.9296C124.466 60.0396 131.512 46.1599 125.044 35.3293L121.346 29.1429C119.898 26.7101 117.872 24.7024 115.464 23.3109C113.055 21.9195 110.342 21.1907 107.585 21.1941H97.5886V16.9376C97.5908 15.8707 97.3899 14.8138 96.9974 13.8276C96.6049 12.8413 96.0284 11.9451 95.3012 11.1902C94.5739 10.4354 93.7101 9.83682 92.7592 9.4288C91.8083 9.02078 90.7892 8.81134 89.7601 8.8125C84.8321 8.8125 80.1059 10.8421 76.6213 14.4548C73.1367 18.0676 71.1791 22.9675 71.1791 28.0766V53.9501C61.8631 55.0341 54.7741 59.6959 49.5721 66.1819C43.7241 73.461 40.3071 82.9168 38.2671 91.9496C36.5223 100.1 35.5262 108.403 35.2921 116.748C35.2071 119.321 35.2071 121.577 35.2241 123.375H30.9486C28.2283 123.375 25.5673 122.552 23.2926 121.005C21.0179 119.458 19.2288 117.256 18.1451 114.669C17.0615 112.082 16.7306 109.224 17.1931 106.444C17.6557 103.665 18.8915 101.087 20.7486 99.0261L27.5231 91.4914C32.2944 86.1863 34.8936 79.1683 34.7731 71.9158C34.6526 64.6632 31.8218 57.7422 26.8771 52.6106L20.2301 45.7104C19.838 45.2896 19.3691 44.9539 18.8505 44.723C18.332 44.4921 17.7743 44.3705 17.21 44.3654C16.6457 44.3603 16.0861 44.4718 15.5638 44.6934C15.0415 44.9149 14.5669 45.2421 14.1679 45.6558C13.7689 46.0695 13.4533 46.5615 13.2396 47.103C13.0259 47.6445 12.9184 48.2247 12.9233 48.8098C12.9282 49.3949 13.0454 49.9731 13.2681 50.5106C13.4909 51.0482 13.8147 51.5344 14.2206 51.9409L20.8761 58.8411C24.2656 62.3563 26.2061 67.0988 26.2886 72.0686C26.3711 77.0384 24.589 81.8472 21.3181 85.4813L14.5351 93.0159C11.5532 96.3329 9.57007 100.48 8.82888 104.949C8.0877 109.418 8.62072 114.013 10.3626 118.172C12.1044 122.332 14.9793 125.873 18.6346 128.363C22.2899 130.852 26.5666 132.182 30.9401 132.188ZM89.0886 17.6514V25.6003C89.0886 26.7689 89.5363 27.8897 90.3334 28.716C91.1304 29.5423 92.2114 30.0066 93.3386 30.0066H107.585C110.245 30.0066 112.719 31.4342 114.13 33.7871L117.827 39.9735C118.552 41.1821 118.952 42.5699 118.985 43.9928C119.019 45.4157 118.684 46.8219 118.016 48.0655C117.348 49.309 116.372 50.3447 115.188 51.0649C114.003 51.7851 112.655 52.1636 111.282 52.1612H108.265C107.137 52.1612 106.056 52.6254 105.259 53.4518C104.462 54.2781 104.015 55.3988 104.015 56.5674V118.493C104.015 119.788 103.518 121.029 102.635 121.945C101.752 122.861 100.554 123.375 99.3056 123.375H94.6051V118.493C94.6062 115.475 94.0338 112.487 92.9207 109.698C91.8076 106.91 90.1755 104.376 88.1177 102.242C86.0599 100.108 83.6167 98.4146 80.9276 97.2595C78.2385 96.1044 75.3563 95.5099 72.4456 95.5099H64.9826C63.8554 95.5099 62.7744 95.9741 61.9774 96.8004C61.1803 97.6268 60.7326 98.7475 60.7326 99.9161C60.7326 101.085 61.1803 102.205 61.9774 103.032C62.7744 103.858 63.8554 104.322 64.9826 104.322H72.4456C79.9851 104.322 86.1051 110.667 86.1051 118.493V123.375H43.7241C43.6986 121.674 43.7071 119.524 43.7836 117.039C43.9876 110.676 44.6761 102.278 46.5461 93.9501C48.4331 85.5606 51.4506 77.6029 56.1001 71.8219C60.6136 66.1995 66.7251 62.5247 75.4291 62.5247C76.5562 62.5247 77.6372 62.0605 78.4343 61.2341C79.2313 60.4078 79.6791 59.2871 79.6791 58.1184V28.0766C79.6791 22.5424 83.8356 18.0039 89.0886 17.6514Z" fill="white"/>
</svg>
