<svg width="60" height="60" viewBox="0 0 60 60" fill="none" xmlns="http://www.w3.org/2000/svg">
<circle cx="30" cy="30" r="20" fill="#CB8325"/>
<path fill-rule="evenodd" clip-rule="evenodd" d="M30.7505 24.1758L31.8292 23.0972C31.5874 22.5949 31.4532 22.0477 31.4353 21.4905C31.4173 20.9334 31.516 20.3787 31.7249 19.8619C31.9338 19.3451 32.2484 18.8777 32.6485 18.4896C33.0486 18.1015 33.5254 17.8013 34.0483 17.6081C34.5712 17.415 35.1287 17.3333 35.685 17.3682C36.2413 17.4031 36.7842 17.5538 37.2789 17.8108C37.7736 18.0677 38.2091 18.4251 38.5576 18.8602C38.906 19.2953 39.1598 19.7983 39.3025 20.3372C39.8387 20.4822 40.3388 20.7373 40.7709 21.0862C41.2031 21.4352 41.5578 21.8703 41.8125 22.3639C42.0673 22.8575 42.2164 23.3987 42.2505 23.9531C42.2846 24.5075 42.2028 25.0629 42.0104 25.5839C41.818 26.105 41.5192 26.5803 41.133 26.9795C40.7468 27.3787 40.2817 27.6931 39.7673 27.9027C39.253 28.1123 38.7006 28.2124 38.1454 28.1968C37.5901 28.1811 37.0443 28.05 36.5425 27.8118L35.4638 28.8905L35.4705 28.9358C35.6252 30.1705 35.5332 31.5438 35.2665 32.8932C34.7398 35.5611 33.4705 38.4265 31.6665 40.2292C29.8452 42.0505 27.6958 42.8025 25.5452 42.6105C23.4345 42.4225 21.4638 41.3385 19.8825 39.7572C18.3012 38.1772 17.2185 36.2065 17.0292 34.0945C16.8372 31.9438 17.5892 29.7945 19.4105 27.9732C21.2145 26.1692 24.0798 24.9012 26.7465 24.3732C28.0972 24.1065 29.4692 24.0145 30.7052 24.1705L30.7505 24.1758ZM38.1838 22.8705C37.8824 22.5066 37.4487 22.2774 36.9782 22.2333C36.5078 22.1891 36.039 22.3337 35.6752 22.6352C35.3113 22.9366 35.0821 23.3703 35.0379 23.8407C34.9938 24.3112 35.1384 24.7799 35.4398 25.1438L34.4572 26.1252C34.196 25.762 33.8777 25.4436 33.5145 25.1825L34.4958 24.2012C34.7458 23.9511 34.8862 23.612 34.8862 23.2585C34.8862 22.9049 34.7458 22.5659 34.4958 22.3158C34.3382 22.1583 34.2226 21.9637 34.1596 21.75C34.0966 21.5362 34.0881 21.3101 34.135 21.0922C34.1819 20.8744 34.2827 20.6718 34.4281 20.5029C34.5735 20.334 34.7589 20.2043 34.9674 20.1255C35.1758 20.0468 35.4007 20.0216 35.6214 20.0521C35.8422 20.0827 36.0517 20.1681 36.231 20.3006C36.4102 20.433 36.5533 20.6083 36.6473 20.8103C36.7414 21.0124 36.7832 21.2348 36.7692 21.4572C36.7575 21.6458 36.786 21.8348 36.8529 22.0116C36.9198 22.1883 37.0235 22.3489 37.1571 22.4825C37.2908 22.6162 37.4513 22.7199 37.6281 22.7868C37.8049 22.8537 37.9952 22.8822 38.1838 22.8705ZM21.2972 29.8572C22.6172 28.5372 24.9372 27.4492 27.2638 26.9905C28.4105 26.7638 29.4878 26.7052 30.3705 26.8172C31.2732 26.9292 31.8385 27.2012 32.1385 27.5012C32.4385 27.8012 32.7105 28.3678 32.8238 29.2692C32.9358 30.1532 32.8772 31.2291 32.6505 32.3758C32.1905 34.7011 31.1025 37.0225 29.7812 38.3438C28.4798 39.6465 27.0932 40.0718 25.7825 39.9545C24.4318 39.8345 23.0158 39.1198 21.7692 37.8718C20.5198 36.6252 19.8065 35.2078 19.6852 33.8585C19.5678 32.5465 19.9945 31.1612 21.2972 29.8585V29.8572Z" fill="white"/>
</svg>
