<svg width="60" height="60" viewBox="0 0 60 60" fill="none" xmlns="http://www.w3.org/2000/svg">
<rect x="10" y="10" width="40" height="40" rx="20" fill="#7EB9FD"/>
<path d="M42 30C42 29.1924 41.3033 27.7168 39.773 26.3867C38.8996 25.6354 37.9041 25.0389 36.8296 24.623C36.7939 24.6097 36.7545 24.6101 36.719 24.6241C36.6835 24.6382 36.6546 24.665 36.6377 24.6992C36.6304 24.7134 36.6231 24.727 36.6148 24.7412L36.1465 25.5176C35.3568 26.8811 34.9413 28.4291 34.9419 30.0048C34.9425 31.5806 35.3592 33.1282 36.1499 34.4912L36.1612 34.5102L36.5879 35.2915C36.6106 35.333 36.6475 35.3649 36.6919 35.3812C36.7362 35.3975 36.785 35.3972 36.8291 35.3804C40.4195 33.9756 42 31.2446 42 30ZM37.4141 29.9931C37.2523 30.0143 37.0879 29.9843 36.9441 29.9073C36.8002 29.8302 36.6841 29.7101 36.612 29.5637C36.5398 29.4173 36.5154 29.2521 36.542 29.0911C36.5686 28.9301 36.645 28.7815 36.7604 28.6661C36.8757 28.5507 37.0244 28.4743 37.1854 28.4477C37.3464 28.4211 37.5116 28.4456 37.658 28.5177C37.8044 28.5898 37.9245 28.7059 38.0015 28.8498C38.0786 28.9936 38.1086 29.158 38.0874 29.3198C38.0651 29.4906 37.987 29.6491 37.8652 29.7709C37.7434 29.8927 37.5848 29.9708 37.4141 29.9931Z" fill="white"/>
<path d="M33.3792 30C33.3785 28.1477 33.8684 26.3282 34.7991 24.7266L34.805 24.7163L35.0305 24.3418C35.0468 24.3151 35.0565 24.2849 35.0587 24.2537C35.0609 24.2225 35.0556 24.1913 35.0432 24.1626C35.0308 24.1339 35.0117 24.1085 34.9875 24.0888C34.9633 24.069 34.9347 24.0553 34.9041 24.0488C34.272 23.9166 33.6314 23.8286 32.9871 23.7857C32.9111 23.7807 32.8382 23.7536 32.7776 23.7075C31.8362 22.9917 29.97 21.7398 28.0676 21.418C27.9376 21.3964 27.8043 21.4081 27.6801 21.452C27.5558 21.4958 27.4446 21.5703 27.3569 21.6687C27.2692 21.767 27.2078 21.8859 27.1784 22.0144C27.149 22.1428 27.1525 22.2766 27.1887 22.4033L27.7073 24.2183C27.7208 24.2653 27.7161 24.3157 27.6942 24.3595C27.6724 24.4032 27.6348 24.4372 27.5891 24.4546C25.7898 25.1231 24.24 26.3467 23.1096 27.2793C23.0405 27.3359 22.9539 27.3671 22.8646 27.3676C22.7752 27.3682 22.6883 27.338 22.6184 27.2822C22.4648 27.1602 22.3071 27.0399 22.1453 26.9214C20.2097 25.5078 17.9358 25.3218 17.8401 25.315C17.7186 25.3058 17.5966 25.3251 17.4839 25.3715C17.3712 25.4179 17.271 25.49 17.1911 25.582C17.1113 25.6741 17.0541 25.7835 17.024 25.9016C16.994 26.0197 16.9921 26.1432 17.0183 26.2622C17.0388 26.3565 17.4671 28.249 18.5662 29.7588C18.6157 29.8265 18.6423 29.9081 18.6423 29.992C18.6423 30.0758 18.6157 30.1574 18.5662 30.2251C17.4671 31.7344 17.0388 33.6275 17.0183 33.7217C16.9921 33.8407 16.994 33.9642 17.024 34.0823C17.0541 34.2004 17.1113 34.3098 17.1911 34.4019C17.271 34.4939 17.3712 34.566 17.4839 34.6124C17.5966 34.6588 17.7186 34.6781 17.8401 34.669C17.9378 34.6621 20.2097 34.4736 22.1428 33.0635C22.3007 32.9476 22.4549 32.8301 22.6052 32.7109C22.6751 32.6552 22.7621 32.6252 22.8515 32.6258C22.9409 32.6264 23.0273 32.6577 23.0965 32.7144C24.2317 33.6514 25.7844 34.8765 27.5886 35.5464C27.6343 35.5638 27.6717 35.5977 27.6936 35.6414C27.7154 35.685 27.7202 35.7353 27.7068 35.7822L27.1863 37.5977C27.1501 37.7244 27.1465 37.8582 27.1759 37.9866C27.2053 38.1151 27.2668 38.234 27.3545 38.3323C27.4422 38.4307 27.5533 38.5052 27.6776 38.549C27.8019 38.5929 27.9352 38.6046 28.0652 38.583C28.9031 38.4414 30.5984 37.9551 32.7551 36.2964C32.8168 36.2494 32.8907 36.2214 32.968 36.2158C33.6116 36.1737 34.2514 36.0873 34.8831 35.957C34.9129 35.9508 34.9408 35.9376 34.9647 35.9187C34.9885 35.8997 35.0075 35.8754 35.0203 35.8477C35.0331 35.8201 35.0392 35.7898 35.0382 35.7594C35.0371 35.7289 35.029 35.6991 35.0144 35.6724L34.7942 35.2676C33.8662 33.6672 33.378 31.8499 33.3792 30Z" fill="white"/>
</svg>
