<svg width="75" height="80" viewBox="0 0 75 80" fill="none" xmlns="http://www.w3.org/2000/svg">
<path d="M37.4996 36.25C28.9692 36.25 16.8746 50.6359 16.8746 59.7168C16.8746 63.8066 19.7546 66.25 24.581 66.25C29.8275 66.25 33.2919 63.3109 37.4996 63.3109C41.7438 63.3109 45.2179 66.25 50.4182 66.25C55.2446 66.25 58.1246 63.8066 58.1246 59.7168C58.1246 50.6359 46.03 36.25 37.4996 36.25ZM21.6785 34.7723C20.5613 30.7117 17.1195 28.082 13.9914 28.8977C10.8633 29.7133 9.23369 33.666 10.3509 37.7266C11.4681 41.7871 14.9099 44.4168 18.038 43.6012C21.1661 42.7856 22.7957 38.8328 21.6785 34.7723ZM30.7793 32.3371C34.1029 31.3832 35.7658 26.4848 34.4939 21.3965C33.2221 16.3082 29.4967 12.9578 26.173 13.9117C22.8494 14.8656 21.1865 19.7641 22.4584 24.8523C23.7303 29.9406 27.4567 33.2922 30.7793 32.3371ZM61.0067 28.8988C57.8786 28.0832 54.4379 30.7129 53.3196 34.7734C52.2024 38.834 53.832 42.7867 56.9601 43.6023C60.0883 44.418 63.529 41.7883 64.6473 37.7277C65.7644 33.6672 64.1348 29.7145 61.0067 28.8988ZM44.2199 32.3371C47.5435 33.291 51.2689 29.9406 52.5408 24.8523C53.8127 19.7641 52.1498 14.8668 48.8262 13.9117C45.5025 12.9566 41.7771 16.3082 40.5053 21.3965C39.2334 26.4848 40.8963 31.3832 44.2199 32.3371Z" fill="#FF879A"/>
</svg>
