<svg width="45" height="45" viewBox="0 0 45 45" fill="none" xmlns="http://www.w3.org/2000/svg">
<path d="M38.8636 40.9091H36.8182V38.8636H34.7727V36.8182H32.7273V34.7727H30.6818V32.7273H28.6364V30.6818H26.5909V28.6364H22.5V30.6818H12.2727V28.6364H8.18182V26.5909H6.13637V22.5H4.09091V12.2727H6.13637V8.18182H8.18182V6.13637H12.2727V4.09091H22.5V6.13637H26.5909V8.18182H28.6364V12.2727H30.6818V22.5H28.6364V26.5909H30.6818V28.6364H32.7273V30.6818H34.7727V32.7273H36.8182V34.7727H38.8636V36.8182H40.9091V38.8636H38.8636M22.5 26.5909V24.5455H24.5455V22.5H26.5909V12.2727H24.5455V10.2273H22.5V8.18182H12.2727V10.2273H10.2273V12.2727H8.18182V22.5H10.2273V24.5455H12.2727V26.5909H22.5Z" fill="#6ABE75"/>
</svg>
