<svg width="60" height="60" viewBox="0 0 60 60" fill="none" xmlns="http://www.w3.org/2000/svg">
<circle cx="30" cy="30" r="20" fill="#FDC37E"/>
<g clip-path="url(#clip0_64_18)">
<path d="M27.4389 35.1455C28.0397 35.4986 28.8232 35.2806 29.1889 34.6584C29.5546 34.0362 29.364 33.2456 28.7632 32.8925C28.1623 32.5393 27.3788 32.7574 27.0132 33.3796C26.6475 34.0017 26.8381 34.7924 27.4389 35.1455Z" fill="white"/>
<path d="M33.3984 25.0068C33.9992 25.36 34.7827 25.1419 35.1484 24.5197C35.514 23.8976 35.3234 23.1069 34.7226 22.7538C34.1218 22.4007 33.3383 22.6187 32.9726 23.2409C32.6069 23.8631 32.7975 24.6537 33.3984 25.0068Z" fill="white"/>
<path d="M23.9389 36.1198C24.5397 36.4729 25.3232 36.2548 25.6889 35.6326C26.0546 35.0105 25.864 34.2198 25.2632 33.8667C24.6623 33.5136 23.8788 33.7317 23.5132 34.3538C23.1475 34.976 23.3381 35.7666 23.9389 36.1198Z" fill="white"/>
<path d="M26.5404 39.1646C27.1413 39.5177 27.9248 39.2996 28.2904 38.6774C28.6561 38.0553 28.4655 37.2646 27.8647 36.9115C27.2639 36.5584 26.4804 36.7765 26.1147 37.3986C25.749 38.0208 25.9396 38.8114 26.5404 39.1646Z" fill="white"/>
<path d="M35.6214 18.7348C38.3411 20.3333 39.7365 24.1849 37.7501 27.5645C37.0018 28.8374 35.9173 29.7612 34.6758 30.3046C34.1196 30.5537 33.4697 31.1114 33.1387 31.6747C32.8076 32.238 32.7537 32.8277 32.8682 33.38C33.231 35.0787 32.9704 36.9414 32.0037 38.5861C29.9908 42.0108 25.6858 43.209 22.3787 41.2652C19.0716 39.3214 18.0243 34.9772 20.0372 31.5526C21.0039 29.9079 22.5047 28.7741 24.1653 28.2647C24.7035 28.0961 25.1925 27.7621 25.5236 27.1988C25.8547 26.6355 26.0259 25.7964 25.9729 25.1893C25.8437 23.8402 26.1232 22.4433 26.8714 21.1703C28.6989 18.0611 32.3578 16.8165 35.6214 18.7348Z" stroke="white" stroke-width="2" stroke-linecap="round" stroke-linejoin="round"/>
</g>
<defs>
<clipPath id="clip0_64_18">
<rect width="30.2847" height="31.3609" fill="white" transform="translate(23.8911 8.80884) rotate(30.4457)"/>
</clipPath>
</defs>
</svg>
