<svg width="60" height="60" viewBox="0 0 60 60" fill="none" xmlns="http://www.w3.org/2000/svg">
<circle cx="30" cy="30" r="20" fill="#FD7E95"/>
<path d="M34.0002 28.625V28.6388M35.3335 17.625V22.8541C36.9836 23.8389 38.2399 25.3972 38.8775 27.25H40.6655C41.0191 27.25 41.3583 27.3949 41.6083 27.6527C41.8584 27.9106 41.9988 28.2603 41.9988 28.625V31.375C41.9988 31.7397 41.8584 32.0894 41.6083 32.3473C41.3583 32.6051 41.0191 32.75 40.6655 32.75H38.8762C38.428 34.057 37.6677 35.2265 36.6655 36.1504V38.9375C36.6655 39.4845 36.4548 40.0091 36.0797 40.3959C35.7047 40.7827 35.1959 41 34.6655 41C34.1351 41 33.6264 40.7827 33.2513 40.3959C32.8762 40.0091 32.6655 39.4845 32.6655 38.9375V38.1359C32.2249 38.2122 31.7789 38.2504 31.3322 38.25H25.9988C25.5521 38.2504 25.1061 38.2122 24.6655 38.1359V38.9375C24.6655 39.4845 24.4548 40.0091 24.0797 40.3959C23.7047 40.7827 23.1959 41 22.6655 41C22.1351 41 21.6264 40.7827 21.2513 40.3959C20.8762 40.0091 20.6655 39.4845 20.6655 38.9375V36.1504C19.4575 35.0366 18.6059 33.5707 18.2235 31.9468C17.8411 30.3229 17.9459 28.6175 18.5241 27.0564C19.1023 25.4953 20.1265 24.1521 21.4613 23.2045C22.7961 22.2569 24.3784 21.7497 25.9988 21.75H29.3322L35.3335 17.625Z" stroke="white" stroke-width="2" stroke-linecap="round" stroke-linejoin="round"/>
</svg>
