<svg width="60" height="60" viewBox="0 0 60 60" fill="none" xmlns="http://www.w3.org/2000/svg">
<rect x="10" y="10" width="40" height="40" rx="20" fill="#FD7E95"/>
<g clip-path="url(#clip0_80_10)">
<path d="M39.5 25.6008C39.5 26.3761 39.1708 27.1197 38.5847 27.668C37.9987 28.2162 37.2038 28.5242 36.375 28.5242C35.025 28.5242 33.875 27.7173 33.45 26.6065C32.9 27.0625 32.175 27.3548 31.375 27.3548C30.675 27.3548 30.025 27.1327 29.5 26.7702C28.975 27.1327 28.3375 27.3548 27.625 27.3548C26.825 27.3548 26.1 27.0625 25.55 26.6065C25.125 27.7173 23.975 28.5242 22.625 28.5242C21.7962 28.5242 21.0013 28.2162 20.4153 27.668C19.8292 27.1197 19.5 26.3761 19.5 25.6008C19.5 24.1508 20.6375 22.9464 22.125 22.7242C22.05 22.5254 22 22.3149 22 22.0927C22 21.6275 22.1975 21.1814 22.5492 20.8525C22.9008 20.5235 23.3777 20.3387 23.875 20.3387C24.125 20.3387 24.3625 20.3855 24.575 20.4673C24.7875 19.719 25.5125 19.1694 26.375 19.1694C26.6875 19.1694 27 19.2512 27.225 19.3681C27.625 18.5847 28.4875 18 29.5 18C30.5125 18 31.375 18.5847 31.775 19.3681C32 19.2512 32.3125 19.1694 32.625 19.1694C33.4875 19.1694 34.2125 19.719 34.425 20.4673C34.6375 20.3855 34.875 20.3387 35.125 20.3387C35.6223 20.3387 36.0992 20.5235 36.4508 20.8525C36.8025 21.1814 37 21.6275 37 22.0927C37 22.3149 36.95 22.5254 36.875 22.7242C38.3625 22.9464 39.5 24.1508 39.5 25.6008ZM27 29.6935C26.6685 29.6935 26.3505 29.8167 26.1161 30.036C25.8817 30.2553 25.75 30.5528 25.75 30.8629C25.75 31.173 25.8817 31.4705 26.1161 31.6898C26.3505 31.9091 26.6685 32.0323 27 32.0323C27.3315 32.0323 27.6495 31.9091 27.8839 31.6898C28.1183 31.4705 28.25 31.173 28.25 30.8629C28.25 30.5528 28.1183 30.2553 27.8839 30.036C27.6495 29.8167 27.3315 29.6935 27 29.6935ZM32 29.6935C31.6685 29.6935 31.3505 29.8167 31.1161 30.036C30.8817 30.2553 30.75 30.5528 30.75 30.8629C30.75 31.173 30.8817 31.4705 31.1161 31.6898C31.3505 31.9091 31.6685 32.0323 32 32.0323C32.3315 32.0323 32.6495 31.9091 32.8839 31.6898C33.1183 31.4705 33.25 31.173 33.25 30.8629C33.25 30.5528 33.1183 30.2553 32.8839 30.036C32.6495 29.8167 32.3315 29.6935 32 29.6935ZM39.7875 28.1266C38.9875 29.0738 37.7625 29.6935 36.375 29.6935C35.8125 29.6935 35.275 29.5766 34.7625 29.3778C34.75 32.3597 34.2875 35.9613 32.5625 37.8206C31.9125 38.5105 31.125 38.8847 30.125 39.0016V36.7097H28.875V39.0016C27.875 38.8847 27.0875 38.5222 26.4375 37.8206C24.7 35.9496 24.2375 32.3714 24.225 29.3895C23.725 29.5766 23.1875 29.6935 22.625 29.6935C21.2375 29.6935 20.0125 29.0738 19.2125 28.1266C18.1 29.1673 17 29.6935 17 29.6935C17 29.6935 18.25 32.0323 20.75 32.0323C21.2 32.0323 21.55 31.9855 21.85 31.927C22.275 36.394 23.975 41.3871 29.5 41.3871C35.025 41.3871 36.725 36.394 37.15 31.927C37.45 31.9855 37.8 32.0323 38.25 32.0323C40.75 32.0323 42 29.6935 42 29.6935C42 29.6935 40.9 29.1673 39.7875 28.1266Z" fill="white"/>
</g>
<defs>
<clipPath id="clip0_80_10">
<rect width="24" height="24" fill="white" transform="translate(18 18)"/>
</clipPath>
</defs>
</svg>
