<svg width="402" height="97" viewBox="0 0 402 97" fill="none" xmlns="http://www.w3.org/2000/svg">
<mask id="path-1-outside-1_30_7" maskUnits="userSpaceOnUse" x="6" y="20" width="390" height="71" fill="black">
<rect fill="white" x="6" y="20" width="390" height="71"/>
<path d="M11.821 35.6364V25.4545H52.2756V35.6364H38.2756V72H25.821V35.6364H11.821ZM62.1903 72.5455C59.9631 72.5455 57.9934 72.1818 56.2812 71.4545C54.5843 70.7121 53.2509 69.5909 52.2812 68.0909C51.3116 66.5909 50.8267 64.6818 50.8267 62.3636C50.8267 60.4545 51.1525 58.8258 51.804 57.4773C52.4555 56.1136 53.3646 55 54.5312 54.1364C55.6979 53.2727 57.054 52.6136 58.5994 52.1591C60.16 51.7045 61.8419 51.4091 63.6449 51.2727C65.5994 51.1212 67.1676 50.9394 68.3494 50.7273C69.5464 50.5 70.41 50.1894 70.9403 49.7955C71.4706 49.3864 71.7358 48.8485 71.7358 48.1818V48.0909C71.7358 47.1818 71.3873 46.4848 70.6903 46C69.9934 45.5152 69.0994 45.2727 68.0085 45.2727C66.8116 45.2727 65.8343 45.5379 65.0767 46.0682C64.3343 46.5833 63.8873 47.3788 63.7358 48.4545H52.1903C52.3419 46.3333 53.0161 44.3788 54.2131 42.5909C55.4252 40.7879 57.1903 39.3485 59.5085 38.2727C61.8267 37.1818 64.7206 36.6364 68.1903 36.6364C70.6903 36.6364 72.9328 36.9318 74.9176 37.5227C76.9025 38.0985 78.5919 38.9091 79.9858 39.9545C81.3797 40.9848 82.4403 42.197 83.1676 43.5909C83.91 44.9697 84.2812 46.4697 84.2812 48.0909V72H72.554V67.0909H72.2812C71.5843 68.3939 70.7358 69.447 69.7358 70.25C68.7509 71.053 67.6222 71.6364 66.3494 72C65.0919 72.3636 63.7055 72.5455 62.1903 72.5455ZM66.2812 64.6364C67.2358 64.6364 68.1297 64.4394 68.9631 64.0455C69.8116 63.6515 70.5009 63.0833 71.0312 62.3409C71.5616 61.5985 71.8267 60.697 71.8267 59.6364V56.7273C71.4934 56.8636 71.1373 56.9924 70.7585 57.1136C70.3949 57.2348 70.0009 57.3485 69.5767 57.4545C69.1676 57.5606 68.7282 57.6591 68.2585 57.75C67.804 57.8409 67.3267 57.9242 66.8267 58C65.857 58.1515 65.0616 58.4015 64.4403 58.75C63.8343 59.0833 63.3797 59.5 63.0767 60C62.7888 60.4848 62.6449 61.0303 62.6449 61.6364C62.6449 62.6061 62.9858 63.3485 63.6676 63.8636C64.3494 64.3788 65.2206 64.6364 66.2812 64.6364ZM90.0938 72V25.4545H102.639V43.1818H102.821C103.276 42 103.942 40.9167 104.821 39.9318C105.7 38.9318 106.791 38.1364 108.094 37.5455C109.397 36.9394 110.912 36.6364 112.639 36.6364C114.942 36.6364 117.132 37.25 119.207 38.4773C121.298 39.7045 122.995 41.6364 124.298 44.2727C125.616 46.9091 126.276 50.3333 126.276 54.5455C126.276 58.5758 125.647 61.9167 124.389 64.5682C123.147 67.2197 121.48 69.197 119.389 70.5C117.313 71.803 115.033 72.4545 112.548 72.4545C110.912 72.4545 109.45 72.1894 108.162 71.6591C106.889 71.1136 105.798 70.3788 104.889 69.4545C103.995 68.5152 103.306 67.4545 102.821 66.2727H102.548V72H90.0938ZM102.366 54.5455C102.366 56.2424 102.586 57.7121 103.026 58.9545C103.48 60.1818 104.116 61.1364 104.935 61.8182C105.768 62.4848 106.76 62.8182 107.912 62.8182C109.063 62.8182 110.041 62.4924 110.844 61.8409C111.662 61.1742 112.283 60.2273 112.707 59C113.147 57.7576 113.366 56.2727 113.366 54.5455C113.366 52.8182 113.147 51.3409 112.707 50.1136C112.283 48.8712 111.662 47.9242 110.844 47.2727C110.041 46.6061 109.063 46.2727 107.912 46.2727C106.76 46.2727 105.768 46.6061 104.935 47.2727C104.116 47.9242 103.48 48.8712 103.026 50.1136C102.586 51.3409 102.366 52.8182 102.366 54.5455ZM131.344 72V25.4545H143.889V43.1818H144.071C144.526 42 145.192 40.9167 146.071 39.9318C146.95 38.9318 148.041 38.1364 149.344 37.5455C150.647 36.9394 152.162 36.6364 153.889 36.6364C156.192 36.6364 158.382 37.25 160.457 38.4773C162.548 39.7045 164.245 41.6364 165.548 44.2727C166.866 46.9091 167.526 50.3333 167.526 54.5455C167.526 58.5758 166.897 61.9167 165.639 64.5682C164.397 67.2197 162.73 69.197 160.639 70.5C158.563 71.803 156.283 72.4545 153.798 72.4545C152.162 72.4545 150.7 72.1894 149.412 71.6591C148.139 71.1136 147.048 70.3788 146.139 69.4545C145.245 68.5152 144.556 67.4545 144.071 66.2727H143.798V72H131.344ZM143.616 54.5455C143.616 56.2424 143.836 57.7121 144.276 58.9545C144.73 60.1818 145.366 61.1364 146.185 61.8182C147.018 62.4848 148.01 62.8182 149.162 62.8182C150.313 62.8182 151.291 62.4924 152.094 61.8409C152.912 61.1742 153.533 60.2273 153.957 59C154.397 57.7576 154.616 56.2727 154.616 54.5455C154.616 52.8182 154.397 51.3409 153.957 50.1136C153.533 48.8712 152.912 47.9242 152.094 47.2727C151.291 46.6061 150.313 46.2727 149.162 46.2727C148.01 46.2727 147.018 46.6061 146.185 47.2727C145.366 47.9242 144.73 48.8712 144.276 50.1136C143.836 51.3409 143.616 52.8182 143.616 54.5455ZM179.349 85.0909C177.91 85.0909 176.539 84.9773 175.236 84.75C173.933 84.5379 172.789 84.2424 171.804 83.8636L174.531 74.9545C175.562 75.3182 176.501 75.553 177.349 75.6591C178.213 75.7652 178.948 75.7045 179.554 75.4773C180.175 75.25 180.622 74.8182 180.895 74.1818L181.168 73.5455L168.895 37.0909H181.986L187.622 61.2727H187.986L193.713 37.0909H206.895L194.168 74.9091C193.531 76.8333 192.607 78.5606 191.395 80.0909C190.198 81.6364 188.622 82.8561 186.668 83.75C184.713 84.6439 182.274 85.0909 179.349 85.0909ZM223.031 72V25.4545H243.122C246.577 25.4545 249.599 26.1364 252.19 27.5C254.781 28.8636 256.796 30.7803 258.236 33.25C259.675 35.7197 260.395 38.6061 260.395 41.9091C260.395 45.2424 259.652 48.1288 258.168 50.5682C256.698 53.0076 254.63 54.8864 251.963 56.2045C249.312 57.5227 246.213 58.1818 242.668 58.1818H230.668V48.3636H240.122C241.607 48.3636 242.872 48.1061 243.918 47.5909C244.978 47.0606 245.789 46.3106 246.349 45.3409C246.925 44.3712 247.213 43.2273 247.213 41.9091C247.213 40.5758 246.925 39.4394 246.349 38.5C245.789 37.5455 244.978 36.8182 243.918 36.3182C242.872 35.803 241.607 35.5455 240.122 35.5455H235.668V72H223.031ZM273.378 72.5455C271.151 72.5455 269.181 72.1818 267.469 71.4545C265.772 70.7121 264.438 69.5909 263.469 68.0909C262.499 66.5909 262.014 64.6818 262.014 62.3636C262.014 60.4545 262.34 58.8258 262.991 57.4773C263.643 56.1136 264.552 55 265.719 54.1364C266.885 53.2727 268.241 52.6136 269.787 52.1591C271.348 51.7045 273.029 51.4091 274.832 51.2727C276.787 51.1212 278.355 50.9394 279.537 50.7273C280.734 50.5 281.598 50.1894 282.128 49.7955C282.658 49.3864 282.923 48.8485 282.923 48.1818V48.0909C282.923 47.1818 282.575 46.4848 281.878 46C281.181 45.5152 280.287 45.2727 279.196 45.2727C277.999 45.2727 277.022 45.5379 276.264 46.0682C275.522 46.5833 275.075 47.3788 274.923 48.4545H263.378C263.529 46.3333 264.204 44.3788 265.401 42.5909C266.613 40.7879 268.378 39.3485 270.696 38.2727C273.014 37.1818 275.908 36.6364 279.378 36.6364C281.878 36.6364 284.12 36.9318 286.105 37.5227C288.09 38.0985 289.779 38.9091 291.173 39.9545C292.567 40.9848 293.628 42.197 294.355 43.5909C295.098 44.9697 295.469 46.4697 295.469 48.0909V72H283.741V67.0909H283.469C282.772 68.3939 281.923 69.447 280.923 70.25C279.938 71.053 278.81 71.6364 277.537 72C276.279 72.3636 274.893 72.5455 273.378 72.5455ZM277.469 64.6364C278.423 64.6364 279.317 64.4394 280.151 64.0455C280.999 63.6515 281.688 63.0833 282.219 62.3409C282.749 61.5985 283.014 60.697 283.014 59.6364V56.7273C282.681 56.8636 282.325 56.9924 281.946 57.1136C281.582 57.2348 281.188 57.3485 280.764 57.4545C280.355 57.5606 279.916 57.6591 279.446 57.75C278.991 57.8409 278.514 57.9242 278.014 58C277.045 58.1515 276.249 58.4015 275.628 58.75C275.022 59.0833 274.567 59.5 274.264 60C273.976 60.4848 273.832 61.0303 273.832 61.6364C273.832 62.6061 274.173 63.3485 274.855 63.8636C275.537 64.3788 276.408 64.6364 277.469 64.6364ZM307.645 72L298.918 37.0909H311.463L315.463 58.3636H315.736L320.19 37.0909H332.372L337.009 58.1818H337.281L341.099 37.0909H353.645L344.918 72H331.372L326.463 53.2727H326.099L321.19 72H307.645ZM389.372 48.4545H377.827C377.766 47.7424 377.516 47.1288 377.077 46.6136C376.637 46.0985 376.069 45.7045 375.372 45.4318C374.69 45.1439 373.933 45 373.099 45C372.024 45 371.099 45.197 370.327 45.5909C369.554 45.9848 369.175 46.5455 369.19 47.2727C369.175 47.7879 369.395 48.2652 369.849 48.7045C370.319 49.1439 371.221 49.4848 372.554 49.7273L379.645 51C383.221 51.6515 385.88 52.75 387.622 54.2955C389.38 55.8258 390.266 57.8788 390.281 60.4545C390.266 62.9394 389.524 65.0985 388.054 66.9318C386.599 68.75 384.607 70.1591 382.077 71.1591C379.562 72.1439 376.69 72.6364 373.463 72.6364C368.13 72.6364 363.955 71.5455 360.94 69.3636C357.94 67.1818 356.266 64.303 355.918 60.7273H368.372C368.539 61.8333 369.084 62.6894 370.009 63.2955C370.948 63.8864 372.13 64.1818 373.554 64.1818C374.705 64.1818 375.652 63.9848 376.395 63.5909C377.152 63.197 377.539 62.6364 377.554 61.9091C377.539 61.2424 377.205 60.7121 376.554 60.3182C375.918 59.9242 374.918 59.6061 373.554 59.3636L367.372 58.2727C363.812 57.6515 361.145 56.4697 359.372 54.7273C357.599 52.9848 356.721 50.7424 356.736 48C356.721 45.5758 357.357 43.5227 358.645 41.8409C359.948 40.1439 361.804 38.8561 364.213 37.9773C366.637 37.0833 369.509 36.6364 372.827 36.6364C377.872 36.6364 381.849 37.6818 384.759 39.7727C387.683 41.8636 389.221 44.7576 389.372 48.4545Z"/>
</mask>
<path d="M11.821 35.6364V25.4545H52.2756V35.6364H38.2756V72H25.821V35.6364H11.821ZM62.1903 72.5455C59.9631 72.5455 57.9934 72.1818 56.2812 71.4545C54.5843 70.7121 53.2509 69.5909 52.2812 68.0909C51.3116 66.5909 50.8267 64.6818 50.8267 62.3636C50.8267 60.4545 51.1525 58.8258 51.804 57.4773C52.4555 56.1136 53.3646 55 54.5312 54.1364C55.6979 53.2727 57.054 52.6136 58.5994 52.1591C60.16 51.7045 61.8419 51.4091 63.6449 51.2727C65.5994 51.1212 67.1676 50.9394 68.3494 50.7273C69.5464 50.5 70.41 50.1894 70.9403 49.7955C71.4706 49.3864 71.7358 48.8485 71.7358 48.1818V48.0909C71.7358 47.1818 71.3873 46.4848 70.6903 46C69.9934 45.5152 69.0994 45.2727 68.0085 45.2727C66.8116 45.2727 65.8343 45.5379 65.0767 46.0682C64.3343 46.5833 63.8873 47.3788 63.7358 48.4545H52.1903C52.3419 46.3333 53.0161 44.3788 54.2131 42.5909C55.4252 40.7879 57.1903 39.3485 59.5085 38.2727C61.8267 37.1818 64.7206 36.6364 68.1903 36.6364C70.6903 36.6364 72.9328 36.9318 74.9176 37.5227C76.9025 38.0985 78.5919 38.9091 79.9858 39.9545C81.3797 40.9848 82.4403 42.197 83.1676 43.5909C83.91 44.9697 84.2812 46.4697 84.2812 48.0909V72H72.554V67.0909H72.2812C71.5843 68.3939 70.7358 69.447 69.7358 70.25C68.7509 71.053 67.6222 71.6364 66.3494 72C65.0919 72.3636 63.7055 72.5455 62.1903 72.5455ZM66.2812 64.6364C67.2358 64.6364 68.1297 64.4394 68.9631 64.0455C69.8116 63.6515 70.5009 63.0833 71.0312 62.3409C71.5616 61.5985 71.8267 60.697 71.8267 59.6364V56.7273C71.4934 56.8636 71.1373 56.9924 70.7585 57.1136C70.3949 57.2348 70.0009 57.3485 69.5767 57.4545C69.1676 57.5606 68.7282 57.6591 68.2585 57.75C67.804 57.8409 67.3267 57.9242 66.8267 58C65.857 58.1515 65.0616 58.4015 64.4403 58.75C63.8343 59.0833 63.3797 59.5 63.0767 60C62.7888 60.4848 62.6449 61.0303 62.6449 61.6364C62.6449 62.6061 62.9858 63.3485 63.6676 63.8636C64.3494 64.3788 65.2206 64.6364 66.2812 64.6364ZM90.0938 72V25.4545H102.639V43.1818H102.821C103.276 42 103.942 40.9167 104.821 39.9318C105.7 38.9318 106.791 38.1364 108.094 37.5455C109.397 36.9394 110.912 36.6364 112.639 36.6364C114.942 36.6364 117.132 37.25 119.207 38.4773C121.298 39.7045 122.995 41.6364 124.298 44.2727C125.616 46.9091 126.276 50.3333 126.276 54.5455C126.276 58.5758 125.647 61.9167 124.389 64.5682C123.147 67.2197 121.48 69.197 119.389 70.5C117.313 71.803 115.033 72.4545 112.548 72.4545C110.912 72.4545 109.45 72.1894 108.162 71.6591C106.889 71.1136 105.798 70.3788 104.889 69.4545C103.995 68.5152 103.306 67.4545 102.821 66.2727H102.548V72H90.0938ZM102.366 54.5455C102.366 56.2424 102.586 57.7121 103.026 58.9545C103.48 60.1818 104.116 61.1364 104.935 61.8182C105.768 62.4848 106.76 62.8182 107.912 62.8182C109.063 62.8182 110.041 62.4924 110.844 61.8409C111.662 61.1742 112.283 60.2273 112.707 59C113.147 57.7576 113.366 56.2727 113.366 54.5455C113.366 52.8182 113.147 51.3409 112.707 50.1136C112.283 48.8712 111.662 47.9242 110.844 47.2727C110.041 46.6061 109.063 46.2727 107.912 46.2727C106.76 46.2727 105.768 46.6061 104.935 47.2727C104.116 47.9242 103.48 48.8712 103.026 50.1136C102.586 51.3409 102.366 52.8182 102.366 54.5455ZM131.344 72V25.4545H143.889V43.1818H144.071C144.526 42 145.192 40.9167 146.071 39.9318C146.95 38.9318 148.041 38.1364 149.344 37.5455C150.647 36.9394 152.162 36.6364 153.889 36.6364C156.192 36.6364 158.382 37.25 160.457 38.4773C162.548 39.7045 164.245 41.6364 165.548 44.2727C166.866 46.9091 167.526 50.3333 167.526 54.5455C167.526 58.5758 166.897 61.9167 165.639 64.5682C164.397 67.2197 162.73 69.197 160.639 70.5C158.563 71.803 156.283 72.4545 153.798 72.4545C152.162 72.4545 150.7 72.1894 149.412 71.6591C148.139 71.1136 147.048 70.3788 146.139 69.4545C145.245 68.5152 144.556 67.4545 144.071 66.2727H143.798V72H131.344ZM143.616 54.5455C143.616 56.2424 143.836 57.7121 144.276 58.9545C144.73 60.1818 145.366 61.1364 146.185 61.8182C147.018 62.4848 148.01 62.8182 149.162 62.8182C150.313 62.8182 151.291 62.4924 152.094 61.8409C152.912 61.1742 153.533 60.2273 153.957 59C154.397 57.7576 154.616 56.2727 154.616 54.5455C154.616 52.8182 154.397 51.3409 153.957 50.1136C153.533 48.8712 152.912 47.9242 152.094 47.2727C151.291 46.6061 150.313 46.2727 149.162 46.2727C148.01 46.2727 147.018 46.6061 146.185 47.2727C145.366 47.9242 144.73 48.8712 144.276 50.1136C143.836 51.3409 143.616 52.8182 143.616 54.5455ZM179.349 85.0909C177.91 85.0909 176.539 84.9773 175.236 84.75C173.933 84.5379 172.789 84.2424 171.804 83.8636L174.531 74.9545C175.562 75.3182 176.501 75.553 177.349 75.6591C178.213 75.7652 178.948 75.7045 179.554 75.4773C180.175 75.25 180.622 74.8182 180.895 74.1818L181.168 73.5455L168.895 37.0909H181.986L187.622 61.2727H187.986L193.713 37.0909H206.895L194.168 74.9091C193.531 76.8333 192.607 78.5606 191.395 80.0909C190.198 81.6364 188.622 82.8561 186.668 83.75C184.713 84.6439 182.274 85.0909 179.349 85.0909ZM223.031 72V25.4545H243.122C246.577 25.4545 249.599 26.1364 252.19 27.5C254.781 28.8636 256.796 30.7803 258.236 33.25C259.675 35.7197 260.395 38.6061 260.395 41.9091C260.395 45.2424 259.652 48.1288 258.168 50.5682C256.698 53.0076 254.63 54.8864 251.963 56.2045C249.312 57.5227 246.213 58.1818 242.668 58.1818H230.668V48.3636H240.122C241.607 48.3636 242.872 48.1061 243.918 47.5909C244.978 47.0606 245.789 46.3106 246.349 45.3409C246.925 44.3712 247.213 43.2273 247.213 41.9091C247.213 40.5758 246.925 39.4394 246.349 38.5C245.789 37.5455 244.978 36.8182 243.918 36.3182C242.872 35.803 241.607 35.5455 240.122 35.5455H235.668V72H223.031ZM273.378 72.5455C271.151 72.5455 269.181 72.1818 267.469 71.4545C265.772 70.7121 264.438 69.5909 263.469 68.0909C262.499 66.5909 262.014 64.6818 262.014 62.3636C262.014 60.4545 262.34 58.8258 262.991 57.4773C263.643 56.1136 264.552 55 265.719 54.1364C266.885 53.2727 268.241 52.6136 269.787 52.1591C271.348 51.7045 273.029 51.4091 274.832 51.2727C276.787 51.1212 278.355 50.9394 279.537 50.7273C280.734 50.5 281.598 50.1894 282.128 49.7955C282.658 49.3864 282.923 48.8485 282.923 48.1818V48.0909C282.923 47.1818 282.575 46.4848 281.878 46C281.181 45.5152 280.287 45.2727 279.196 45.2727C277.999 45.2727 277.022 45.5379 276.264 46.0682C275.522 46.5833 275.075 47.3788 274.923 48.4545H263.378C263.529 46.3333 264.204 44.3788 265.401 42.5909C266.613 40.7879 268.378 39.3485 270.696 38.2727C273.014 37.1818 275.908 36.6364 279.378 36.6364C281.878 36.6364 284.12 36.9318 286.105 37.5227C288.09 38.0985 289.779 38.9091 291.173 39.9545C292.567 40.9848 293.628 42.197 294.355 43.5909C295.098 44.9697 295.469 46.4697 295.469 48.0909V72H283.741V67.0909H283.469C282.772 68.3939 281.923 69.447 280.923 70.25C279.938 71.053 278.81 71.6364 277.537 72C276.279 72.3636 274.893 72.5455 273.378 72.5455ZM277.469 64.6364C278.423 64.6364 279.317 64.4394 280.151 64.0455C280.999 63.6515 281.688 63.0833 282.219 62.3409C282.749 61.5985 283.014 60.697 283.014 59.6364V56.7273C282.681 56.8636 282.325 56.9924 281.946 57.1136C281.582 57.2348 281.188 57.3485 280.764 57.4545C280.355 57.5606 279.916 57.6591 279.446 57.75C278.991 57.8409 278.514 57.9242 278.014 58C277.045 58.1515 276.249 58.4015 275.628 58.75C275.022 59.0833 274.567 59.5 274.264 60C273.976 60.4848 273.832 61.0303 273.832 61.6364C273.832 62.6061 274.173 63.3485 274.855 63.8636C275.537 64.3788 276.408 64.6364 277.469 64.6364ZM307.645 72L298.918 37.0909H311.463L315.463 58.3636H315.736L320.19 37.0909H332.372L337.009 58.1818H337.281L341.099 37.0909H353.645L344.918 72H331.372L326.463 53.2727H326.099L321.19 72H307.645ZM389.372 48.4545H377.827C377.766 47.7424 377.516 47.1288 377.077 46.6136C376.637 46.0985 376.069 45.7045 375.372 45.4318C374.69 45.1439 373.933 45 373.099 45C372.024 45 371.099 45.197 370.327 45.5909C369.554 45.9848 369.175 46.5455 369.19 47.2727C369.175 47.7879 369.395 48.2652 369.849 48.7045C370.319 49.1439 371.221 49.4848 372.554 49.7273L379.645 51C383.221 51.6515 385.88 52.75 387.622 54.2955C389.38 55.8258 390.266 57.8788 390.281 60.4545C390.266 62.9394 389.524 65.0985 388.054 66.9318C386.599 68.75 384.607 70.1591 382.077 71.1591C379.562 72.1439 376.69 72.6364 373.463 72.6364C368.13 72.6364 363.955 71.5455 360.94 69.3636C357.94 67.1818 356.266 64.303 355.918 60.7273H368.372C368.539 61.8333 369.084 62.6894 370.009 63.2955C370.948 63.8864 372.13 64.1818 373.554 64.1818C374.705 64.1818 375.652 63.9848 376.395 63.5909C377.152 63.197 377.539 62.6364 377.554 61.9091C377.539 61.2424 377.205 60.7121 376.554 60.3182C375.918 59.9242 374.918 59.6061 373.554 59.3636L367.372 58.2727C363.812 57.6515 361.145 56.4697 359.372 54.7273C357.599 52.9848 356.721 50.7424 356.736 48C356.721 45.5758 357.357 43.5227 358.645 41.8409C359.948 40.1439 361.804 38.8561 364.213 37.9773C366.637 37.0833 369.509 36.6364 372.827 36.6364C377.872 36.6364 381.849 37.6818 384.759 39.7727C387.683 41.8636 389.221 44.7576 389.372 48.4545Z" fill="#6ABE75"/>
<path d="M11.821 35.6364H6.82102V40.6364H11.821V35.6364ZM11.821 25.4545V20.4545H6.82102V25.4545H11.821ZM52.2756 25.4545H57.2756V20.4545H52.2756V25.4545ZM52.2756 35.6364V40.6364H57.2756V35.6364H52.2756ZM38.2756 35.6364V30.6364H33.2756V35.6364H38.2756ZM38.2756 72V77H43.2756V72H38.2756ZM25.821 72H20.821V77H25.821V72ZM25.821 35.6364H30.821V30.6364H25.821V35.6364ZM16.821 35.6364V25.4545H6.82102V35.6364H16.821ZM11.821 30.4545H52.2756V20.4545H11.821V30.4545ZM47.2756 25.4545V35.6364H57.2756V25.4545H47.2756ZM52.2756 30.6364H38.2756V40.6364H52.2756V30.6364ZM33.2756 35.6364V72H43.2756V35.6364H33.2756ZM38.2756 67H25.821V77H38.2756V67ZM30.821 72V35.6364H20.821V72H30.821ZM25.821 30.6364H11.821V40.6364H25.821V30.6364ZM56.2812 71.4545L54.2772 76.0353L54.3017 76.0461L54.3264 76.0566L56.2812 71.4545ZM52.2812 68.0909L48.0823 70.8054L48.0823 70.8054L52.2812 68.0909ZM51.804 57.4773L56.3061 59.6524L56.3108 59.6426L56.3155 59.6328L51.804 57.4773ZM54.5312 54.1364L57.5061 58.1551L57.5061 58.1551L54.5312 54.1364ZM58.5994 52.1591L57.2012 47.3586L57.1886 47.3623L58.5994 52.1591ZM63.6449 51.2727L64.022 56.2585L64.0313 56.2578L63.6449 51.2727ZM68.3494 50.7273L69.2328 55.6486L69.2575 55.6442L69.2821 55.6395L68.3494 50.7273ZM70.9403 49.7955L73.922 53.8092L73.9584 53.7821L73.9944 53.7544L70.9403 49.7955ZM70.6903 46L67.835 50.1045L67.835 50.1045L70.6903 46ZM65.0767 46.0682L67.9271 50.1761L67.9356 50.1702L67.944 50.1643L65.0767 46.0682ZM63.7358 48.4545V53.4545H68.0809L68.6869 49.1519L63.7358 48.4545ZM52.1903 48.4545L47.203 48.0983L46.8205 53.4545H52.1903V48.4545ZM54.2131 42.5909L50.0636 39.8013L50.0582 39.8093L54.2131 42.5909ZM59.5085 38.2727L61.6132 42.8082L61.6254 42.8025L61.6375 42.7968L59.5085 38.2727ZM74.9176 37.5227L73.4909 42.3149L73.5078 42.3199L73.5247 42.3248L74.9176 37.5227ZM79.9858 39.9545L76.9858 43.9545L76.9998 43.965L77.0138 43.9754L79.9858 39.9545ZM83.1676 43.5909L78.7347 45.9037L78.7498 45.9327L78.7653 45.9614L83.1676 43.5909ZM84.2812 72V77H89.2812V72H84.2812ZM72.554 72H67.554V77H72.554V72ZM72.554 67.0909H77.554V62.0909H72.554V67.0909ZM72.2812 67.0909V62.0909H69.2853L67.8723 64.7326L72.2812 67.0909ZM69.7358 70.25L66.6051 66.3514L66.5906 66.3631L66.5761 66.3749L69.7358 70.25ZM66.3494 72L64.9758 67.1924L64.9682 67.1946L64.9605 67.1968L66.3494 72ZM68.9631 64.0455L66.8575 59.5104L66.8418 59.5177L66.8262 59.5251L68.9631 64.0455ZM71.0312 62.3409L66.9626 59.4347L66.9626 59.4347L71.0312 62.3409ZM71.8267 56.7273H76.8267V49.2796L69.9335 52.0995L71.8267 56.7273ZM70.7585 57.1136L69.2346 52.3515L69.206 52.3607L69.1774 52.3702L70.7585 57.1136ZM69.5767 57.4545L68.364 52.6038L68.3429 52.6091L68.3219 52.6146L69.5767 57.4545ZM68.2585 57.75L67.3084 52.8411L67.2932 52.8441L67.2779 52.8471L68.2585 57.75ZM66.8267 58L66.0777 53.0564L66.0662 53.0582L66.0548 53.0599L66.8267 58ZM64.4403 58.75L66.8499 63.1311L66.8683 63.121L66.8866 63.1107L64.4403 58.75ZM63.0767 60L58.8007 57.4085L58.789 57.4278L58.7774 57.4473L63.0767 60ZM63.6676 63.8636L66.6818 59.8743L66.6818 59.8743L63.6676 63.8636ZM62.1903 67.5455C60.5048 67.5455 59.2206 67.2707 58.2361 66.8525L54.3264 76.0566C56.7661 77.0929 59.4213 77.5455 62.1903 77.5455V67.5455ZM58.2853 66.8738C57.4521 66.5092 56.8968 66.0208 56.4802 65.3764L48.0823 70.8054C49.6051 73.1611 51.7165 74.915 54.2772 76.0353L58.2853 66.8738ZM56.4802 65.3764C56.1683 64.8939 55.8267 64.0016 55.8267 62.3636H45.8267C45.8267 65.362 46.4548 68.2879 48.0823 70.8054L56.4802 65.3764ZM55.8267 62.3636C55.8267 61.0074 56.0595 60.1627 56.3061 59.6524L47.3019 55.3021C46.2454 57.4888 45.8267 59.9017 45.8267 62.3636H55.8267ZM56.3155 59.6328C56.6298 58.975 57.0237 58.5122 57.5061 58.1551L51.5564 50.1177C49.7055 51.4878 48.2812 53.2523 47.2925 55.3218L56.3155 59.6328ZM57.5061 58.1551C58.1522 57.6768 58.9663 57.263 60.0103 56.9559L57.1886 47.3623C55.1417 47.9643 53.2436 48.8686 51.5564 50.1177L57.5061 58.1551ZM59.9976 56.9596C61.1904 56.6122 62.5267 56.3716 64.022 56.2585L63.2678 46.287C61.157 46.4466 59.1296 46.7969 57.2012 47.3586L59.9976 56.9596ZM64.0313 56.2578C66.0626 56.1003 67.8168 55.9028 69.2328 55.6486L67.4661 45.8059C66.5184 45.976 65.1363 46.1421 63.2585 46.2877L64.0313 56.2578ZM69.2821 55.6395C70.6966 55.3709 72.4674 54.8897 73.922 53.8092L67.9587 45.7817C68.0918 45.6829 68.189 45.6309 68.2247 45.6129C68.2614 45.5943 68.2585 45.5989 68.2028 45.6189C68.0832 45.6619 67.8351 45.7356 67.4167 45.815L69.2821 55.6395ZM73.9944 53.7544C75.7452 52.4037 76.7358 50.4068 76.7358 48.1818H66.7358C66.7358 47.8351 66.8095 47.3669 67.0522 46.8745C67.2946 46.3828 67.6187 46.043 67.8863 45.8365L73.9944 53.7544ZM76.7358 48.1818V48.0909H66.7358V48.1818H76.7358ZM76.7358 48.0909C76.7358 45.6816 75.6946 43.3904 73.5457 41.8955L67.835 50.1045C67.5598 49.9131 67.2351 49.588 67.0023 49.1224C66.7759 48.6697 66.7358 48.2835 66.7358 48.0909H76.7358ZM73.5457 41.8955C71.8005 40.6815 69.8303 40.2727 68.0085 40.2727V50.2727C68.1881 50.2727 68.2358 50.2931 68.1885 50.2802C68.1326 50.2651 67.9979 50.2178 67.835 50.1045L73.5457 41.8955ZM68.0085 40.2727C66.0863 40.2727 64.024 40.7018 62.2094 41.972L67.944 50.1643C67.8786 50.2101 67.8186 50.2429 67.77 50.2652C67.7221 50.2871 67.6922 50.2957 67.6871 50.2971C67.6798 50.2991 67.7744 50.2727 68.0085 50.2727V40.2727ZM62.2263 41.9602C60.1102 43.4286 59.088 45.6038 58.7847 47.7572L68.6869 49.1519C68.6921 49.115 68.6768 49.2635 68.5436 49.5005C68.4 49.756 68.1841 49.9978 67.9271 50.1761L62.2263 41.9602ZM63.7358 43.4545H52.1903V53.4545H63.7358V43.4545ZM57.1776 48.8108C57.2665 47.5673 57.6486 46.447 58.3679 45.3725L50.0582 39.8093C48.3836 42.3106 47.4173 45.0994 47.203 48.0983L57.1776 48.8108ZM58.3626 45.3805C58.9815 44.4598 59.9756 43.5681 61.6132 42.8082L57.4038 33.7373C54.4051 35.1288 51.8689 37.116 50.0636 39.8013L58.3626 45.3805ZM61.6375 42.7968C63.0975 42.1097 65.2098 41.6364 68.1903 41.6364V31.6364C64.2315 31.6364 60.5559 32.2539 57.3795 33.7486L61.6375 42.7968ZM68.1903 41.6364C70.3037 41.6364 72.0533 41.8869 73.4909 42.3149L76.3443 32.7306C73.8123 31.9768 71.077 31.6364 68.1903 31.6364V41.6364ZM73.5247 42.3248C75.0353 42.763 76.1554 43.3317 76.9858 43.9545L82.9858 35.9545C81.0283 34.4864 78.7697 33.434 76.3106 32.7207L73.5247 42.3248ZM77.0138 43.9754C77.8608 44.6015 78.3932 45.2492 78.7347 45.9037L87.6005 41.2781C86.4875 39.1448 84.8986 37.3682 82.9578 35.9337L77.0138 43.9754ZM78.7653 45.9614C79.1013 46.5854 79.2812 47.2668 79.2812 48.0909H89.2812C89.2812 45.6726 88.7188 43.354 87.57 41.2204L78.7653 45.9614ZM79.2812 48.0909V72H89.2812V48.0909H79.2812ZM84.2812 67H72.554V77H84.2812V67ZM77.554 72V67.0909H67.554V72H77.554ZM72.554 62.0909H72.2812V72.0909H72.554V62.0909ZM67.8723 64.7326C67.4453 65.5311 67.0056 66.0298 66.6051 66.3514L72.8665 74.1486C74.466 72.8641 75.7233 71.2568 76.6902 69.4492L67.8723 64.7326ZM66.5761 66.3749C66.1391 66.7313 65.6238 67.0072 64.9758 67.1924L67.723 76.8076C69.6205 76.2655 71.3628 75.3748 72.8955 74.1251L66.5761 66.3749ZM64.9605 67.1968C64.2188 67.4113 63.3077 67.5455 62.1903 67.5455V77.5455C64.1033 77.5455 65.9649 77.316 67.7383 76.8032L64.9605 67.1968ZM66.2812 69.6364C67.9478 69.6364 69.5745 69.2869 71.1 68.5658L66.8262 59.5251C66.685 59.5918 66.5238 59.6364 66.2812 59.6364V69.6364ZM71.0686 68.5805C72.6805 67.8321 74.0539 66.7115 75.0999 65.2471L66.9626 59.4347C66.9528 59.4484 66.9464 59.4556 66.9435 59.4587C66.9407 59.4618 66.9386 59.4636 66.9365 59.4654C66.9348 59.4668 66.9145 59.484 66.8575 59.5104L71.0686 68.5805ZM75.0999 65.2471C76.3302 63.5247 76.8267 61.5642 76.8267 59.6364H66.8267C66.8267 59.7495 66.8128 59.7591 66.831 59.6971C66.8399 59.6668 66.8549 59.6251 66.8785 59.5765C66.9021 59.5276 66.9306 59.4794 66.9626 59.4347L75.0999 65.2471ZM76.8267 59.6364V56.7273H66.8267V59.6364H76.8267ZM69.9335 52.0995C69.7332 52.1815 69.5013 52.2662 69.2346 52.3515L72.2824 61.8758C72.7733 61.7187 73.2535 61.5458 73.7199 61.355L69.9335 52.0995ZM69.1774 52.3702C68.9506 52.4458 68.681 52.5246 68.364 52.6038L70.7894 62.3053C71.3209 62.1724 71.8392 62.0239 72.3397 61.8571L69.1774 52.3702ZM68.3219 52.6146C68.0257 52.6913 67.6889 52.7675 67.3084 52.8411L69.2086 62.6589C69.7675 62.5507 70.3095 62.4299 70.8315 62.2945L68.3219 52.6146ZM67.2779 52.8471C66.9068 52.9213 66.5071 52.9914 66.0777 53.0564L67.5757 62.9436C68.1463 62.8571 68.7012 62.7605 69.2391 62.6529L67.2779 52.8471ZM66.0548 53.0599C64.7036 53.2711 63.29 53.6623 61.9941 54.3893L66.8866 63.1107C66.8507 63.1309 66.879 63.1097 67.002 63.0711C67.1246 63.0326 67.3182 62.9839 67.5986 62.9401L66.0548 53.0599ZM62.0307 54.3689C60.7978 55.0471 59.6351 56.0318 58.8007 57.4085L67.3527 62.5915C67.1244 62.9682 66.8708 63.1196 66.8499 63.1311L62.0307 54.3689ZM58.7774 57.4473C57.9966 58.7624 57.6449 60.2016 57.6449 61.6364H67.6449C67.6449 61.7321 67.6331 61.8752 67.5873 62.0485C67.541 62.224 67.4689 62.3962 67.376 62.5527L58.7774 57.4473ZM57.6449 61.6364C57.6449 63.9324 58.5402 66.2563 60.6534 67.853L66.6818 59.8743C66.9688 60.0911 67.254 60.4193 67.4444 60.834C67.6255 61.2282 67.6449 61.534 67.6449 61.6364H57.6449ZM60.6534 67.853C62.3947 69.1686 64.3999 69.6364 66.2812 69.6364V59.6364C66.1527 59.6364 66.1559 59.6205 66.25 59.6484C66.354 59.6791 66.5136 59.7473 66.6818 59.8743L60.6534 67.853ZM90.0938 72H85.0938V77H90.0938V72ZM90.0938 25.4545V20.4545H85.0938V25.4545H90.0938ZM102.639 25.4545H107.639V20.4545H102.639V25.4545ZM102.639 43.1818H97.6392V48.1818H102.639V43.1818ZM102.821 43.1818V48.1818H106.255L107.488 44.9767L102.821 43.1818ZM104.821 39.9318L108.552 43.2608L108.564 43.2466L108.577 43.2324L104.821 39.9318ZM108.094 37.5455L110.159 42.0991L110.181 42.0892L110.202 42.0791L108.094 37.5455ZM119.207 38.4773L116.663 42.7813L116.67 42.7853L116.676 42.7894L119.207 38.4773ZM124.298 44.2727L119.816 46.4882L119.821 46.4985L119.826 46.5088L124.298 44.2727ZM124.389 64.5682L119.872 62.4255L119.867 62.4361L119.862 62.4467L124.389 64.5682ZM119.389 70.5L116.745 66.2566L116.738 66.2609L116.731 66.2652L119.389 70.5ZM108.162 71.6591L106.192 76.2548L106.225 76.2689L106.258 76.2825L108.162 71.6591ZM104.889 69.4545L101.267 72.9014L101.296 72.9313L101.325 72.9607L104.889 69.4545ZM102.821 66.2727L107.447 64.3749L106.174 61.2727H102.821V66.2727ZM102.548 66.2727V61.2727H97.5483V66.2727H102.548ZM102.548 72V77H107.548V72H102.548ZM103.026 58.9545L98.3117 60.6217L98.324 60.6565L98.3368 60.6911L103.026 58.9545ZM104.935 61.8182L101.734 65.6593L101.772 65.6913L101.811 65.7225L104.935 61.8182ZM110.844 61.8409L113.994 65.7237L114.002 65.7171L110.844 61.8409ZM112.707 59L107.993 57.3329L107.988 57.3497L107.982 57.3665L112.707 59ZM112.707 50.1136L107.976 51.7294L107.988 51.7643L108 51.799L112.707 50.1136ZM110.844 47.2727L107.65 51.1198L107.689 51.1524L107.729 51.1841L110.844 47.2727ZM104.935 47.2727L108.049 51.1841L108.058 51.1771L104.935 47.2727ZM103.026 50.1136L98.33 48.3957L98.324 48.412L98.3182 48.4283L103.026 50.1136ZM95.0938 72V25.4545H85.0938V72H95.0938ZM90.0938 30.4545H102.639V20.4545H90.0938V30.4545ZM97.6392 25.4545V43.1818H107.639V25.4545H97.6392ZM102.639 48.1818H102.821V38.1818H102.639V48.1818ZM107.488 44.9767C107.716 44.3823 108.058 43.8144 108.552 43.2608L101.09 36.6029C99.8267 38.019 98.8348 39.6177 98.1543 41.3869L107.488 44.9767ZM108.577 43.2324C108.953 42.8043 109.453 42.4192 110.159 42.0991L106.029 32.9918C104.129 33.8535 102.447 35.0593 101.065 36.6312L108.577 43.2324ZM110.202 42.0791C110.725 41.8359 111.496 41.6364 112.639 41.6364V31.6364C110.328 31.6364 108.068 32.0429 105.985 33.0118L110.202 42.0791ZM112.639 41.6364C114.004 41.6364 115.32 41.9873 116.663 42.7813L121.752 34.1733C118.944 32.5127 115.88 31.6364 112.639 31.6364V41.6364ZM116.676 42.7894C117.762 43.4266 118.852 44.538 119.816 46.4882L128.781 42.0573C127.138 38.7347 124.835 35.9825 121.738 34.1652L116.676 42.7894ZM119.826 46.5088C120.681 48.2182 121.276 50.799 121.276 54.5455H131.276C131.276 49.8677 130.552 45.6 128.77 42.0367L119.826 46.5088ZM121.276 54.5455C121.276 58.0955 120.716 60.645 119.872 62.4255L128.907 66.7108C130.578 63.1883 131.276 59.056 131.276 54.5455H121.276ZM119.862 62.4467C118.95 64.3912 117.872 65.5538 116.745 66.2566L122.034 74.7434C125.088 72.8401 127.343 70.0482 128.917 66.6897L119.862 62.4467ZM116.731 66.2652C115.463 67.061 114.107 67.4545 112.548 67.4545V77.4545C115.96 77.4545 119.164 76.5451 122.048 74.7348L116.731 66.2652ZM112.548 67.4545C111.453 67.4545 110.654 67.2778 110.066 67.0357L106.258 76.2825C108.246 77.1009 110.371 77.4545 112.548 77.4545V67.4545ZM110.132 67.0634C109.415 66.7563 108.877 66.3783 108.454 65.9484L101.325 72.9607C102.72 74.3793 104.363 75.4709 106.192 76.2548L110.132 67.0634ZM108.511 66.0077C108.039 65.5109 107.693 64.9738 107.447 64.3749L98.1952 68.1705C98.9192 69.9353 99.952 71.5194 101.267 72.9014L108.511 66.0077ZM102.821 61.2727H102.548V71.2727H102.821V61.2727ZM97.5483 66.2727V72H107.548V66.2727H97.5483ZM102.548 67H90.0938V77H102.548V67ZM97.3665 54.5455C97.3665 56.6552 97.6373 58.7149 98.3117 60.6217L107.739 57.2874C107.535 56.7094 107.366 55.8296 107.366 54.5455H97.3665ZM98.3368 60.6911C99.0259 62.5516 100.107 64.3033 101.734 65.6593L108.136 57.9771C108.126 57.9694 107.934 57.812 107.714 57.218L98.3368 60.6911ZM101.811 65.7225C103.603 67.1562 105.721 67.8182 107.912 67.8182V57.8182C107.866 57.8182 107.845 57.8149 107.846 57.815C107.848 57.8153 107.866 57.8184 107.896 57.8284C107.926 57.8385 107.959 57.8527 107.991 57.8704C108.024 57.888 108.046 57.9042 108.058 57.9138L101.811 65.7225ZM107.912 67.8182C110.072 67.8182 112.198 67.1806 113.994 65.7237L107.694 57.9581C107.721 57.9357 107.758 57.91 107.803 57.8854C107.848 57.8608 107.891 57.8427 107.927 57.8304C108.005 57.8046 108.013 57.8182 107.912 57.8182V67.8182ZM114.002 65.7171C115.691 64.3412 116.775 62.5372 117.433 60.6335L107.982 57.3665C107.791 57.9173 107.633 58.0073 107.685 57.9647L114.002 65.7171ZM117.421 60.6671C118.099 58.752 118.366 56.6741 118.366 54.5455H108.366C108.366 55.8713 108.195 56.7631 107.993 57.3329L117.421 60.6671ZM118.366 54.5455C118.366 52.4194 118.099 50.3401 117.415 48.4283L108 51.799C108.194 52.3417 108.366 53.2169 108.366 54.5455H118.366ZM117.439 48.4979C116.785 46.5814 115.693 44.743 113.958 43.3613L107.729 51.1841C107.63 51.1055 107.782 51.1611 107.976 51.7294L117.439 48.4979ZM114.038 43.4257C112.243 41.9356 110.101 41.2727 107.912 41.2727V51.2727C108.001 51.2727 107.982 51.2848 107.894 51.255C107.853 51.2409 107.807 51.2208 107.76 51.1946C107.714 51.1684 107.676 51.1417 107.65 51.1198L114.038 43.4257ZM107.912 41.2727C105.721 41.2727 103.603 41.9347 101.811 43.3684L108.058 51.1771C108.046 51.1867 108.024 51.2029 107.991 51.2205C107.959 51.2382 107.926 51.2524 107.896 51.2625C107.866 51.2725 107.848 51.2756 107.846 51.2759C107.845 51.276 107.866 51.2727 107.912 51.2727V41.2727ZM101.82 43.3613C100.116 44.7183 99.0174 46.5168 98.33 48.3957L107.721 51.8315C107.943 51.2256 108.117 51.1302 108.049 51.1841L101.82 43.3613ZM98.3182 48.4283C97.6337 50.3401 97.3665 52.4194 97.3665 54.5455H107.366C107.366 53.2169 107.539 52.3417 107.733 51.799L98.3182 48.4283ZM131.344 72H126.344V77H131.344V72ZM131.344 25.4545V20.4545H126.344V25.4545H131.344ZM143.889 25.4545H148.889V20.4545H143.889V25.4545ZM143.889 43.1818H138.889V48.1818H143.889V43.1818ZM144.071 43.1818V48.1818H147.505L148.738 44.9767L144.071 43.1818ZM146.071 39.9318L149.802 43.2608L149.814 43.2466L149.827 43.2324L146.071 39.9318ZM149.344 37.5455L151.409 42.0991L151.431 42.0892L151.452 42.0791L149.344 37.5455ZM160.457 38.4773L157.913 42.7813L157.92 42.7853L157.926 42.7894L160.457 38.4773ZM165.548 44.2727L161.066 46.4882L161.071 46.4985L161.076 46.5088L165.548 44.2727ZM165.639 64.5682L161.122 62.4255L161.117 62.4361L161.112 62.4467L165.639 64.5682ZM160.639 70.5L157.995 66.2566L157.988 66.2609L157.981 66.2652L160.639 70.5ZM149.412 71.6591L147.442 76.2548L147.475 76.2689L147.508 76.2825L149.412 71.6591ZM146.139 69.4545L142.517 72.9014L142.546 72.9313L142.575 72.9607L146.139 69.4545ZM144.071 66.2727L148.697 64.3749L147.424 61.2727H144.071V66.2727ZM143.798 66.2727V61.2727H138.798V66.2727H143.798ZM143.798 72V77H148.798V72H143.798ZM144.276 58.9545L139.562 60.6217L139.574 60.6565L139.587 60.6911L144.276 58.9545ZM146.185 61.8182L142.984 65.6593L143.022 65.6913L143.061 65.7225L146.185 61.8182ZM152.094 61.8409L155.244 65.7237L155.252 65.7171L152.094 61.8409ZM153.957 59L149.243 57.3329L149.238 57.3497L149.232 57.3665L153.957 59ZM153.957 50.1136L149.226 51.7294L149.238 51.7643L149.25 51.799L153.957 50.1136ZM152.094 47.2727L148.9 51.1198L148.939 51.1524L148.979 51.1841L152.094 47.2727ZM146.185 47.2727L149.299 51.1841L149.308 51.1771L146.185 47.2727ZM144.276 50.1136L139.58 48.3957L139.574 48.412L139.568 48.4283L144.276 50.1136ZM136.344 72V25.4545H126.344V72H136.344ZM131.344 30.4545H143.889V20.4545H131.344V30.4545ZM138.889 25.4545V43.1818H148.889V25.4545H138.889ZM143.889 48.1818H144.071V38.1818H143.889V48.1818ZM148.738 44.9767C148.966 44.3823 149.308 43.8144 149.802 43.2608L142.34 36.6029C141.077 38.019 140.085 39.6177 139.404 41.3869L148.738 44.9767ZM149.827 43.2324C150.203 42.8043 150.703 42.4192 151.409 42.0991L147.279 32.9918C145.379 33.8535 143.697 35.0593 142.315 36.6312L149.827 43.2324ZM151.452 42.0791C151.975 41.8359 152.746 41.6364 153.889 41.6364V31.6364C151.578 31.6364 149.318 32.0429 147.235 33.0118L151.452 42.0791ZM153.889 41.6364C155.254 41.6364 156.57 41.9873 157.913 42.7813L163.002 34.1733C160.194 32.5127 157.13 31.6364 153.889 31.6364V41.6364ZM157.926 42.7894C159.012 43.4266 160.102 44.538 161.066 46.4882L170.031 42.0573C168.388 38.7347 166.085 35.9825 162.988 34.1652L157.926 42.7894ZM161.076 46.5088C161.931 48.2182 162.526 50.799 162.526 54.5455H172.526C172.526 49.8677 171.802 45.6 170.02 42.0367L161.076 46.5088ZM162.526 54.5455C162.526 58.0955 161.966 60.645 161.122 62.4255L170.157 66.7108C171.828 63.1883 172.526 59.056 172.526 54.5455H162.526ZM161.112 62.4467C160.2 64.3912 159.122 65.5538 157.995 66.2566L163.284 74.7434C166.338 72.8401 168.593 70.0482 170.167 66.6897L161.112 62.4467ZM157.981 66.2652C156.713 67.061 155.357 67.4545 153.798 67.4545V77.4545C157.21 77.4545 160.414 76.5451 163.298 74.7348L157.981 66.2652ZM153.798 67.4545C152.703 67.4545 151.904 67.2778 151.316 67.0357L147.508 76.2825C149.496 77.1009 151.621 77.4545 153.798 77.4545V67.4545ZM151.382 67.0634C150.665 66.7563 150.127 66.3783 149.704 65.9484L142.575 72.9607C143.97 74.3793 145.613 75.4709 147.442 76.2548L151.382 67.0634ZM149.761 66.0077C149.289 65.5109 148.943 64.9738 148.697 64.3749L139.445 68.1705C140.169 69.9353 141.202 71.5194 142.517 72.9014L149.761 66.0077ZM144.071 61.2727H143.798V71.2727H144.071V61.2727ZM138.798 66.2727V72H148.798V66.2727H138.798ZM143.798 67H131.344V77H143.798V67ZM138.616 54.5455C138.616 56.6552 138.887 58.7149 139.562 60.6217L148.989 57.2874C148.785 56.7094 148.616 55.8296 148.616 54.5455H138.616ZM139.587 60.6911C140.276 62.5516 141.357 64.3033 142.984 65.6593L149.386 57.9771C149.376 57.9694 149.184 57.812 148.964 57.218L139.587 60.6911ZM143.061 65.7225C144.853 67.1562 146.971 67.8182 149.162 67.8182V57.8182C149.116 57.8182 149.095 57.8149 149.096 57.815C149.098 57.8153 149.116 57.8184 149.146 57.8284C149.176 57.8385 149.209 57.8527 149.241 57.8704C149.274 57.888 149.296 57.9042 149.308 57.9138L143.061 65.7225ZM149.162 67.8182C151.322 67.8182 153.448 67.1806 155.244 65.7237L148.944 57.9581C148.971 57.9357 149.008 57.91 149.053 57.8854C149.098 57.8608 149.141 57.8427 149.177 57.8304C149.255 57.8046 149.263 57.8182 149.162 57.8182V67.8182ZM155.252 65.7171C156.941 64.3412 158.025 62.5372 158.683 60.6335L149.232 57.3665C149.041 57.9173 148.883 58.0073 148.935 57.9647L155.252 65.7171ZM158.671 60.6671C159.349 58.752 159.616 56.6741 159.616 54.5455H149.616C149.616 55.8713 149.445 56.7631 149.243 57.3329L158.671 60.6671ZM159.616 54.5455C159.616 52.4194 159.349 50.3401 158.665 48.4283L149.25 51.799C149.444 52.3417 149.616 53.2169 149.616 54.5455H159.616ZM158.689 48.4979C158.035 46.5814 156.943 44.743 155.208 43.3613L148.979 51.1841C148.88 51.1055 149.032 51.1611 149.226 51.7294L158.689 48.4979ZM155.288 43.4257C153.493 41.9356 151.351 41.2727 149.162 41.2727V51.2727C149.251 51.2727 149.232 51.2848 149.144 51.255C149.103 51.2409 149.057 51.2208 149.01 51.1946C148.964 51.1684 148.926 51.1417 148.9 51.1198L155.288 43.4257ZM149.162 41.2727C146.971 41.2727 144.853 41.9347 143.061 43.3684L149.308 51.1771C149.296 51.1867 149.274 51.2029 149.241 51.2205C149.209 51.2382 149.176 51.2524 149.146 51.2625C149.116 51.2725 149.098 51.2756 149.096 51.2759C149.095 51.276 149.116 51.2727 149.162 51.2727V41.2727ZM143.07 43.3613C141.366 44.7183 140.267 46.5168 139.58 48.3957L148.971 51.8315C149.193 51.2256 149.367 51.1302 149.299 51.1841L143.07 43.3613ZM139.568 48.4283C138.884 50.3401 138.616 52.4194 138.616 54.5455H148.616C148.616 53.2169 148.789 52.3417 148.983 51.799L139.568 48.4283ZM175.236 84.75L176.095 79.8244L176.067 79.8195L176.039 79.815L175.236 84.75ZM171.804 83.8636L167.023 82.4001L165.659 86.8571L170.009 88.5304L171.804 83.8636ZM174.531 74.9545L176.195 70.2396L171.277 68.5037L169.75 73.491L174.531 74.9545ZM177.349 75.6591L176.729 80.6205L176.74 80.6218L177.349 75.6591ZM179.554 75.4773L177.836 70.7817L177.817 70.7886L177.798 70.7956L179.554 75.4773ZM180.895 74.1818L185.491 76.1514L185.491 76.1514L180.895 74.1818ZM181.168 73.5455L185.763 75.515L186.516 73.7599L185.906 71.9501L181.168 73.5455ZM168.895 37.0909V32.0909H161.936L164.156 38.6862L168.895 37.0909ZM181.986 37.0909L186.855 35.9559L185.954 32.0909H181.986V37.0909ZM187.622 61.2727L182.753 62.4077L183.654 66.2727H187.622V61.2727ZM187.986 61.2727V66.2727H191.94L192.851 62.4251L187.986 61.2727ZM193.713 37.0909V32.0909H189.759L188.848 35.9386L193.713 37.0909ZM206.895 37.0909L211.634 38.6857L213.853 32.0909H206.895V37.0909ZM194.168 74.9091L189.429 73.3143L189.425 73.3267L189.42 73.3392L194.168 74.9091ZM191.395 80.0909L187.475 76.9864L187.459 77.0077L187.442 77.0293L191.395 80.0909ZM186.668 83.75L184.588 79.203L184.588 79.203L186.668 83.75ZM179.349 80.0909C178.173 80.0909 177.091 79.998 176.095 79.8244L174.377 89.6756C175.987 89.9565 177.647 90.0909 179.349 90.0909V80.0909ZM176.039 79.815C174.995 79.6449 174.195 79.4263 173.599 79.1969L170.009 88.5304C171.382 89.0586 172.871 89.4309 174.432 89.685L176.039 79.815ZM176.585 85.3272L179.312 76.4181L169.75 73.491L167.023 82.4001L176.585 85.3272ZM172.867 79.6695C174.147 80.1213 175.443 80.4597 176.729 80.6205L177.97 70.6977C177.559 70.6464 176.976 70.515 176.195 70.2396L172.867 79.6695ZM176.74 80.6218C178.14 80.7937 179.735 80.7494 181.31 80.1589L177.798 70.7956C177.983 70.7265 178.107 70.7126 178.137 70.7101C178.164 70.7079 178.111 70.715 177.959 70.6964L176.74 80.6218ZM181.272 80.1729C183.253 79.448 184.704 77.9877 185.491 76.1514L176.299 72.2122C176.395 71.9888 176.574 71.6832 176.881 71.387C177.192 71.087 177.534 70.8922 177.836 70.7817L181.272 80.1729ZM185.491 76.1514L185.763 75.515L176.572 71.5759L176.299 72.2122L185.491 76.1514ZM185.906 71.9501L173.634 35.4956L164.156 38.6862L176.429 75.1408L185.906 71.9501ZM168.895 42.0909H181.986V32.0909H168.895V42.0909ZM177.116 38.2259L182.753 62.4077L192.492 60.1377L186.855 35.9559L177.116 38.2259ZM187.622 66.2727H187.986V56.2727H187.622V66.2727ZM192.851 62.4251L198.578 38.2432L188.848 35.9386L183.12 60.1204L192.851 62.4251ZM193.713 42.0909H206.895V32.0909H193.713V42.0909ZM202.156 35.4961L189.429 73.3143L198.906 76.5039L211.634 38.6857L202.156 35.4961ZM189.42 73.3392C188.961 74.7289 188.31 75.9326 187.475 76.9864L195.314 83.1954C196.904 81.1886 198.102 78.9378 198.915 76.479L189.42 73.3392ZM187.442 77.0293C186.788 77.8736 185.882 78.6113 184.588 79.203L188.747 88.297C191.363 87.1008 193.608 85.3992 195.348 83.1526L187.442 77.0293ZM184.588 79.203C183.477 79.7113 181.8 80.0909 179.349 80.0909V90.0909C182.747 90.0909 185.949 89.5766 188.747 88.297L184.588 79.203ZM223.031 72H218.031V77H223.031V72ZM223.031 25.4545V20.4545H218.031V25.4545H223.031ZM252.19 27.5L249.862 31.9246L249.862 31.9246L252.19 27.5ZM258.236 33.25L262.556 30.7323L262.556 30.7323L258.236 33.25ZM258.168 50.5682L253.897 47.9684L253.891 47.9782L253.885 47.9879L258.168 50.5682ZM251.963 56.2045L249.747 51.7223L249.737 51.7273L251.963 56.2045ZM230.668 58.1818H225.668V63.1818H230.668V58.1818ZM230.668 48.3636V43.3636H225.668V48.3636H230.668ZM243.918 47.5909L246.128 52.076L246.141 52.0695L246.154 52.063L243.918 47.5909ZM246.349 45.3409L242.05 42.7882L242.035 42.8132L242.021 42.8384L246.349 45.3409ZM246.349 38.5L242.038 41.0321L242.062 41.0727L242.086 41.1128L246.349 38.5ZM243.918 36.3182L241.708 40.8032L241.746 40.8224L241.786 40.8408L243.918 36.3182ZM235.668 35.5455V30.5455H230.668V35.5455H235.668ZM235.668 72V77H240.668V72H235.668ZM228.031 72V25.4545H218.031V72H228.031ZM223.031 30.4545H243.122V20.4545H223.031V30.4545ZM243.122 30.4545C245.911 30.4545 248.108 31.0014 249.862 31.9246L254.519 23.0754C251.091 21.2713 247.242 20.4545 243.122 20.4545V30.4545ZM249.862 31.9246C251.644 32.8629 252.96 34.1281 253.916 35.7677L262.556 30.7323C260.632 27.4325 257.918 24.8644 254.519 23.0754L249.862 31.9246ZM253.916 35.7677C254.845 37.3611 255.395 39.3513 255.395 41.9091H265.395C265.395 37.8608 264.506 34.0783 262.556 30.7323L253.916 35.7677ZM255.395 41.9091C255.395 44.4809 254.83 46.4354 253.897 47.9684L262.439 53.1679C264.475 49.8222 265.395 46.0039 265.395 41.9091H255.395ZM253.885 47.9879C252.931 49.5713 251.598 50.8077 249.747 51.7223L254.179 60.6868C257.662 58.965 260.465 56.4439 262.45 53.1485L253.885 47.9879ZM249.737 51.7273C247.901 52.6403 245.592 53.1818 242.668 53.1818V63.1818C246.835 63.1818 250.722 62.4052 254.189 60.6818L249.737 51.7273ZM242.668 53.1818H230.668V63.1818H242.668V53.1818ZM235.668 58.1818V48.3636H225.668V58.1818H235.668ZM230.668 53.3636H240.122V43.3636H230.668V53.3636ZM240.122 53.3636C242.17 53.3636 244.233 53.0097 246.128 52.076L241.708 43.1058C241.512 43.2024 241.044 43.3636 240.122 43.3636V53.3636ZM246.154 52.063C248.036 51.1221 249.598 49.7111 250.678 47.8434L242.021 42.8384C241.979 42.9101 241.921 42.9991 241.682 43.1188L246.154 52.063ZM250.649 47.8936C251.756 46.0293 252.213 43.9722 252.213 41.9091H242.213C242.213 42.4823 242.095 42.7131 242.05 42.7882L250.649 47.8936ZM252.213 41.9091C252.213 39.8481 251.763 37.7637 250.612 35.8872L242.086 41.1128C242.088 41.1151 242.213 41.3035 242.213 41.9091H252.213ZM250.661 35.9679C249.56 34.093 247.964 32.6978 246.05 31.7956L241.786 40.8408C241.993 40.9385 242.018 40.9979 242.038 41.0321L250.661 35.9679ZM246.128 31.8331C244.233 30.8994 242.17 30.5455 240.122 30.5455V40.5455C241.044 40.5455 241.512 40.7066 241.708 40.8032L246.128 31.8331ZM240.122 30.5455H235.668V40.5455H240.122V30.5455ZM230.668 35.5455V72H240.668V35.5455H230.668ZM235.668 67H223.031V77H235.668V67ZM267.469 71.4545L265.465 76.0353L265.489 76.0461L265.514 76.0566L267.469 71.4545ZM263.469 68.0909L259.27 70.8054L259.27 70.8054L263.469 68.0909ZM262.991 57.4773L267.494 59.6524L267.498 59.6426L267.503 59.6328L262.991 57.4773ZM265.719 54.1364L268.694 58.1551L268.694 58.1551L265.719 54.1364ZM269.787 52.1591L268.389 47.3586L268.376 47.3623L269.787 52.1591ZM274.832 51.2727L275.209 56.2585L275.219 56.2578L274.832 51.2727ZM279.537 50.7273L280.42 55.6486L280.445 55.6442L280.47 55.6395L279.537 50.7273ZM282.128 49.7955L285.109 53.8092L285.146 53.7821L285.182 53.7544L282.128 49.7955ZM281.878 46L279.023 50.1045L279.023 50.1045L281.878 46ZM276.264 46.0682L279.115 50.1761L279.123 50.1702L279.132 50.1643L276.264 46.0682ZM274.923 48.4545V53.4545H279.268L279.874 49.1519L274.923 48.4545ZM263.378 48.4545L258.391 48.0983L258.008 53.4545H263.378V48.4545ZM265.401 42.5909L261.251 39.8013L261.246 39.8093L265.401 42.5909ZM270.696 38.2727L272.801 42.8082L272.813 42.8025L272.825 42.7968L270.696 38.2727ZM286.105 37.5227L284.678 42.3149L284.695 42.3199L284.712 42.3248L286.105 37.5227ZM291.173 39.9545L288.173 43.9545L288.187 43.965L288.201 43.9754L291.173 39.9545ZM294.355 43.5909L289.922 45.9037L289.937 45.9327L289.953 45.9614L294.355 43.5909ZM295.469 72V77H300.469V72H295.469ZM283.741 72H278.741V77H283.741V72ZM283.741 67.0909H288.741V62.0909H283.741V67.0909ZM283.469 67.0909V62.0909H280.473L279.06 64.7326L283.469 67.0909ZM280.923 70.25L277.793 66.3514L277.778 66.3631L277.764 66.3749L280.923 70.25ZM277.537 72L276.163 67.1924L276.156 67.1946L276.148 67.1968L277.537 72ZM280.151 64.0455L278.045 59.5104L278.029 59.5177L278.014 59.5251L280.151 64.0455ZM282.219 62.3409L278.15 59.4347L278.15 59.4347L282.219 62.3409ZM283.014 56.7273H288.014V49.2796L281.121 52.0995L283.014 56.7273ZM281.946 57.1136L280.422 52.3515L280.393 52.3607L280.365 52.3702L281.946 57.1136ZM280.764 57.4545L279.552 52.6038L279.53 52.6091L279.509 52.6146L280.764 57.4545ZM279.446 57.75L278.496 52.8411L278.481 52.8441L278.465 52.8471L279.446 57.75ZM278.014 58L277.265 53.0564L277.254 53.0582L277.242 53.0599L278.014 58ZM275.628 58.75L278.037 63.1311L278.056 63.121L278.074 63.1107L275.628 58.75ZM274.264 60L269.988 57.4085L269.976 57.4278L269.965 57.4473L274.264 60ZM274.855 63.8636L277.869 59.8743L277.869 59.8743L274.855 63.8636ZM273.378 67.5455C271.692 67.5455 270.408 67.2707 269.424 66.8525L265.514 76.0566C267.954 77.0929 270.609 77.5455 273.378 77.5455V67.5455ZM269.473 66.8738C268.64 66.5092 268.084 66.0208 267.668 65.3764L259.27 70.8054C260.793 73.1611 262.904 74.915 265.465 76.0353L269.473 66.8738ZM267.668 65.3764C267.356 64.8939 267.014 64.0016 267.014 62.3636H257.014C257.014 65.362 257.642 68.2879 259.27 70.8054L267.668 65.3764ZM267.014 62.3636C267.014 61.0074 267.247 60.1627 267.494 59.6524L258.489 55.3021C257.433 57.4888 257.014 59.9017 257.014 62.3636H267.014ZM267.503 59.6328C267.817 58.975 268.211 58.5122 268.694 58.1551L262.744 50.1177C260.893 51.4878 259.469 53.2523 258.48 55.3218L267.503 59.6328ZM268.694 58.1551C269.34 57.6768 270.154 57.263 271.198 56.9559L268.376 47.3623C266.329 47.9643 264.431 48.8686 262.744 50.1177L268.694 58.1551ZM271.185 56.9596C272.378 56.6122 273.714 56.3716 275.209 56.2585L274.455 46.287C272.344 46.4466 270.317 46.7969 268.389 47.3586L271.185 56.9596ZM275.219 56.2578C277.25 56.1003 279.004 55.9028 280.42 55.6486L278.654 45.8059C277.706 45.976 276.324 46.1421 274.446 46.2877L275.219 56.2578ZM280.47 55.6395C281.884 55.3709 283.655 54.8897 285.109 53.8092L279.146 45.7817C279.279 45.6829 279.376 45.6309 279.412 45.6129C279.449 45.5943 279.446 45.5989 279.39 45.6189C279.271 45.6619 279.023 45.7356 278.604 45.815L280.47 55.6395ZM285.182 53.7544C286.933 52.4037 287.923 50.4068 287.923 48.1818H277.923C277.923 47.8351 277.997 47.3669 278.24 46.8745C278.482 46.3828 278.806 46.043 279.074 45.8365L285.182 53.7544ZM287.923 48.1818V48.0909H277.923V48.1818H287.923ZM287.923 48.0909C287.923 45.6816 286.882 43.3904 284.733 41.8955L279.023 50.1045C278.747 49.9131 278.423 49.588 278.19 49.1224C277.963 48.6697 277.923 48.2835 277.923 48.0909H287.923ZM284.733 41.8955C282.988 40.6815 281.018 40.2727 279.196 40.2727V50.2727C279.376 50.2727 279.423 50.2931 279.376 50.2802C279.32 50.2651 279.185 50.2178 279.023 50.1045L284.733 41.8955ZM279.196 40.2727C277.274 40.2727 275.211 40.7018 273.397 41.972L279.132 50.1643C279.066 50.2101 279.006 50.2429 278.958 50.2652C278.91 50.2871 278.88 50.2957 278.875 50.2971C278.867 50.2991 278.962 50.2727 279.196 50.2727V40.2727ZM273.414 41.9602C271.298 43.4286 270.275 45.6038 269.972 47.7572L279.874 49.1519C279.88 49.115 279.864 49.2635 279.731 49.5005C279.588 49.756 279.372 49.9978 279.115 50.1761L273.414 41.9602ZM274.923 43.4545H263.378V53.4545H274.923V43.4545ZM268.365 48.8108C268.454 47.5673 268.836 46.447 269.555 45.3725L261.246 39.8093C259.571 42.3106 258.605 45.0994 258.391 48.0983L268.365 48.8108ZM269.55 45.3805C270.169 44.4598 271.163 43.5681 272.801 42.8082L268.591 33.7373C265.593 35.1288 263.056 37.116 261.251 39.8013L269.55 45.3805ZM272.825 42.7968C274.285 42.1097 276.397 41.6364 279.378 41.6364V31.6364C275.419 31.6364 271.743 32.2539 268.567 33.7486L272.825 42.7968ZM279.378 41.6364C281.491 41.6364 283.241 41.8869 284.678 42.3149L287.532 32.7306C285 31.9768 282.264 31.6364 279.378 31.6364V41.6364ZM284.712 42.3248C286.223 42.763 287.343 43.3317 288.173 43.9545L294.173 35.9545C292.216 34.4864 289.957 33.434 287.498 32.7207L284.712 42.3248ZM288.201 43.9754C289.048 44.6015 289.581 45.2492 289.922 45.9037L298.788 41.2781C297.675 39.1448 296.086 37.3682 294.145 35.9337L288.201 43.9754ZM289.953 45.9614C290.289 46.5854 290.469 47.2668 290.469 48.0909H300.469C300.469 45.6726 299.906 43.354 298.757 41.2204L289.953 45.9614ZM290.469 48.0909V72H300.469V48.0909H290.469ZM295.469 67H283.741V77H295.469V67ZM288.741 72V67.0909H278.741V72H288.741ZM283.741 62.0909H283.469V72.0909H283.741V62.0909ZM279.06 64.7326C278.633 65.5311 278.193 66.0298 277.793 66.3514L284.054 74.1486C285.653 72.8641 286.911 71.2568 287.878 69.4492L279.06 64.7326ZM277.764 66.3749C277.327 66.7313 276.811 67.0072 276.163 67.1924L278.911 76.8076C280.808 76.2655 282.55 75.3748 284.083 74.1251L277.764 66.3749ZM276.148 67.1968C275.406 67.4113 274.495 67.5455 273.378 67.5455V77.5455C275.291 77.5455 277.152 77.316 278.926 76.8032L276.148 67.1968ZM277.469 69.6364C279.135 69.6364 280.762 69.2869 282.287 68.5658L278.014 59.5251C277.872 59.5918 277.711 59.6364 277.469 59.6364V69.6364ZM282.256 68.5805C283.868 67.8321 285.241 66.7115 286.287 65.2471L278.15 59.4347C278.14 59.4484 278.134 59.4556 278.131 59.4587C278.128 59.4618 278.126 59.4636 278.124 59.4654C278.122 59.4668 278.102 59.484 278.045 59.5104L282.256 68.5805ZM286.287 65.2471C287.518 63.5247 288.014 61.5642 288.014 59.6364H278.014C278.014 59.7495 278 59.7591 278.019 59.6971C278.027 59.6668 278.042 59.6251 278.066 59.5765C278.09 59.5276 278.118 59.4794 278.15 59.4347L286.287 65.2471ZM288.014 59.6364V56.7273H278.014V59.6364H288.014ZM281.121 52.0995C280.921 52.1815 280.689 52.2662 280.422 52.3515L283.47 61.8758C283.961 61.7187 284.441 61.5458 284.907 61.355L281.121 52.0995ZM280.365 52.3702C280.138 52.4458 279.869 52.5246 279.552 52.6038L281.977 62.3053C282.508 62.1724 283.027 62.0239 283.527 61.8571L280.365 52.3702ZM279.509 52.6146C279.213 52.6913 278.876 52.7675 278.496 52.8411L280.396 62.6589C280.955 62.5507 281.497 62.4299 282.019 62.2945L279.509 52.6146ZM278.465 52.8471C278.094 52.9213 277.695 52.9914 277.265 53.0564L278.763 62.9436C279.334 62.8571 279.889 62.7605 280.427 62.6529L278.465 52.8471ZM277.242 53.0599C275.891 53.2711 274.478 53.6623 273.182 54.3893L278.074 63.1107C278.038 63.1309 278.067 63.1097 278.189 63.0711C278.312 63.0326 278.506 62.9839 278.786 62.9401L277.242 53.0599ZM273.218 54.3689C271.985 55.0471 270.823 56.0318 269.988 57.4085L278.54 62.5915C278.312 62.9682 278.058 63.1196 278.037 63.1311L273.218 54.3689ZM269.965 57.4473C269.184 58.7624 268.832 60.2016 268.832 61.6364H278.832C278.832 61.7321 278.821 61.8752 278.775 62.0485C278.729 62.224 278.656 62.3962 278.563 62.5527L269.965 57.4473ZM268.832 61.6364C268.832 63.9324 269.728 66.2563 271.841 67.853L277.869 59.8743C278.156 60.0911 278.441 60.4193 278.632 60.834C278.813 61.2282 278.832 61.534 278.832 61.6364H268.832ZM271.841 67.853C273.582 69.1686 275.587 69.6364 277.469 69.6364V59.6364C277.34 59.6364 277.343 59.6205 277.437 59.6484C277.541 59.6791 277.701 59.7473 277.869 59.8743L271.841 67.853ZM307.645 72L302.794 73.2127L303.741 77H307.645V72ZM298.918 37.0909V32.0909H292.514L294.067 38.3036L298.918 37.0909ZM311.463 37.0909L316.377 36.1669L315.611 32.0909H311.463V37.0909ZM315.463 58.3636L310.549 59.2876L311.316 63.3636H315.463V58.3636ZM315.736 58.3636V63.3636H319.797L320.63 59.3884L315.736 58.3636ZM320.19 37.0909V32.0909H316.129L315.296 36.0661L320.19 37.0909ZM332.372 37.0909L337.256 36.0174L336.392 32.0909H332.372V37.0909ZM337.009 58.1818L332.125 59.2553L332.988 63.1818H337.009V58.1818ZM337.281 58.1818V63.1818H341.457L342.201 59.0725L337.281 58.1818ZM341.099 37.0909V32.0909H336.923L336.179 36.2002L341.099 37.0909ZM353.645 37.0909L358.496 38.3036L360.049 32.0909H353.645V37.0909ZM344.918 72V77H348.821L349.768 73.2127L344.918 72ZM331.372 72L326.536 73.2678L327.514 77H331.372V72ZM326.463 53.2727L331.3 52.0049L330.321 48.2727H326.463V53.2727ZM326.099 53.2727V48.2727H322.241L321.263 52.0049L326.099 53.2727ZM321.19 72V77H325.049L326.027 73.2678L321.19 72ZM312.496 70.7873L303.768 35.8782L294.067 38.3036L302.794 73.2127L312.496 70.7873ZM298.918 42.0909H311.463V32.0909H298.918V42.0909ZM306.549 38.0149L310.549 59.2876L320.377 57.4397L316.377 36.1669L306.549 38.0149ZM315.463 63.3636H315.736V53.3636H315.463V63.3636ZM320.63 59.3884L325.084 38.1157L315.296 36.0661L310.842 57.3389L320.63 59.3884ZM320.19 42.0909H332.372V32.0909H320.19V42.0909ZM327.489 38.1644L332.125 59.2553L341.892 57.1083L337.256 36.0174L327.489 38.1644ZM337.009 63.1818H337.281V53.1818H337.009V63.1818ZM342.201 59.0725L346.019 37.9816L336.179 36.2002L332.361 57.2911L342.201 59.0725ZM341.099 42.0909H353.645V32.0909H341.099V42.0909ZM348.794 35.8782L340.067 70.7873L349.768 73.2127L358.496 38.3036L348.794 35.8782ZM344.918 67H331.372V77H344.918V67ZM336.209 70.7322L331.3 52.0049L321.626 54.5406L326.536 73.2678L336.209 70.7322ZM326.463 48.2727H326.099V58.2727H326.463V48.2727ZM321.263 52.0049L316.354 70.7322L326.027 73.2678L330.936 54.5406L321.263 52.0049ZM321.19 67H307.645V77H321.19V67ZM389.372 48.4545V53.4545H394.581L394.368 48.2498L389.372 48.4545ZM377.827 48.4545L372.845 48.8785L373.234 53.4545H377.827V48.4545ZM377.077 46.6136L380.881 43.3689L380.881 43.3689L377.077 46.6136ZM375.372 45.4318L373.427 50.0381L373.488 50.0639L373.55 50.088L375.372 45.4318ZM370.327 45.5909L368.056 41.1364L368.056 41.1364L370.327 45.5909ZM369.19 47.2727L374.188 47.4197L374.192 47.2942L374.189 47.1686L369.19 47.2727ZM369.849 48.7045L366.374 52.2995L366.404 52.3279L366.434 52.3559L369.849 48.7045ZM372.554 49.7273L371.66 54.6466L371.671 54.6486L372.554 49.7273ZM379.645 51L380.541 46.081L380.528 46.0786L379.645 51ZM387.622 54.2955L384.304 58.0361L384.322 58.0513L384.339 58.0664L387.622 54.2955ZM390.281 60.4545L395.281 60.485L395.281 60.4551L395.281 60.4251L390.281 60.4545ZM388.054 66.9318L384.153 63.8044L384.15 63.8083L388.054 66.9318ZM382.077 71.1591L383.9 75.8149L383.907 75.812L383.914 75.8091L382.077 71.1591ZM360.94 69.3636L357.999 73.4073L358.009 73.4143L360.94 69.3636ZM355.918 60.7273V55.7273H350.407L350.941 61.2123L355.918 60.7273ZM368.372 60.7273L373.316 59.9823L372.675 55.7273H368.372V60.7273ZM370.009 63.2955L367.267 67.4767L367.306 67.5026L367.346 67.5278L370.009 63.2955ZM376.395 63.5909L374.088 59.1548L374.07 59.1644L374.051 59.1742L376.395 63.5909ZM377.554 61.9091L382.553 62.0132L382.555 61.9044L382.553 61.7955L377.554 61.9091ZM376.554 60.3182L373.922 64.5695L373.944 64.5833L373.967 64.5968L376.554 60.3182ZM373.554 59.3636L374.429 54.4408L374.423 54.4397L373.554 59.3636ZM367.372 58.2727L368.241 53.3488L368.232 53.3471L367.372 58.2727ZM359.372 54.7273L362.877 51.1614L362.877 51.1614L359.372 54.7273ZM356.736 48L361.736 48.0276L361.736 47.9982L361.736 47.9688L356.736 48ZM358.645 41.8409L354.679 38.7958L354.675 38.801L358.645 41.8409ZM364.213 37.9773L365.927 42.6745L365.935 42.6715L365.943 42.6685L364.213 37.9773ZM384.759 39.7727L381.84 43.8328L381.85 43.84L384.759 39.7727ZM389.372 43.4545H377.827V53.4545H389.372V43.4545ZM382.809 48.0305C382.665 46.3396 382.037 44.7239 380.881 43.3689L373.273 49.8584C373.154 49.7192 373.044 49.5446 372.963 49.3467C372.884 49.1513 372.854 48.9855 372.845 48.8785L382.809 48.0305ZM380.881 43.3689C379.852 42.1632 378.576 41.3162 377.194 40.7756L373.55 50.088C373.566 50.0942 373.533 50.083 373.472 50.0408C373.409 49.9973 373.339 49.9358 373.273 49.8584L380.881 43.3689ZM377.317 40.8256C375.947 40.247 374.517 40 373.099 40V50C373.228 50 373.312 50.011 373.359 50.0201C373.406 50.0289 373.425 50.0372 373.427 50.0381L377.317 40.8256ZM373.099 40C371.42 40 369.681 40.308 368.056 41.1364L372.598 50.0454C372.518 50.0859 372.627 50 373.099 50V40ZM368.056 41.1364C367.123 41.6119 366.099 42.3553 365.32 43.5075C364.508 44.7094 364.164 46.0621 364.191 47.3769L374.189 47.1686C374.201 47.7561 374.039 48.4648 373.606 49.1061C373.206 49.6977 372.758 49.9638 372.598 50.0454L368.056 41.1364ZM364.193 47.1257C364.127 49.3574 365.156 51.1216 366.374 52.2995L373.325 45.1096C373.455 45.2355 373.689 45.5 373.886 45.9263C374.092 46.3743 374.204 46.8908 374.188 47.4197L364.193 47.1257ZM366.434 52.3559C368.04 53.8583 370.221 54.385 371.66 54.6466L373.448 44.8079C373.218 44.7661 373.037 44.7253 372.898 44.6891C372.757 44.6524 372.678 44.6248 372.646 44.613C372.613 44.6003 372.658 44.6145 372.756 44.67C372.851 44.7243 373.041 44.8433 373.265 45.0532L366.434 52.3559ZM371.671 54.6486L378.762 55.9214L380.528 46.0786L373.437 44.8059L371.671 54.6486ZM378.749 55.919C381.886 56.4907 383.528 57.3475 384.304 58.0361L390.94 50.5548C388.231 48.1525 384.555 46.8123 380.541 46.081L378.749 55.919ZM384.339 58.0664C384.892 58.5481 385.274 59.1747 385.281 60.484L395.281 60.4251C395.259 56.5829 393.867 53.1035 390.905 50.5245L384.339 58.0664ZM385.281 60.4241C385.273 61.8519 384.875 62.903 384.153 63.8044L391.955 70.0592C394.172 67.294 395.26 64.0269 395.281 60.485L385.281 60.4241ZM384.15 63.8083C383.325 64.8394 382.097 65.7748 380.239 66.5091L383.914 75.8091C387.117 74.5434 389.874 72.6606 391.958 70.0553L384.15 63.8083ZM380.254 66.5033C378.421 67.2211 376.185 67.6364 373.463 67.6364V77.6364C377.195 77.6364 380.703 77.0668 383.9 75.8149L380.254 66.5033ZM373.463 67.6364C368.743 67.6364 365.736 66.6623 363.872 65.3129L358.009 73.4143C362.175 76.4286 367.516 77.6364 373.463 77.6364V67.6364ZM363.881 65.32C361.994 63.9477 361.099 62.3435 360.894 60.2423L350.941 61.2123C351.433 66.2626 353.886 70.4159 357.999 73.4073L363.881 65.32ZM355.918 65.7273H368.372V55.7273H355.918V65.7273ZM363.428 61.4723C363.804 63.9655 365.137 66.0799 367.267 67.4767L372.75 59.1142C372.827 59.1645 372.983 59.2918 373.123 59.5121C373.263 59.731 373.306 59.9153 373.316 59.9823L363.428 61.4723ZM367.346 67.5278C369.28 68.7442 371.451 69.1818 373.554 69.1818V59.1818C372.808 59.1818 372.616 59.0286 372.671 59.0632L367.346 67.5278ZM373.554 69.1818C375.235 69.1818 377.057 68.8999 378.738 68.0077L374.051 59.1742C374.154 59.1195 374.189 59.1223 374.11 59.1389C374.027 59.156 373.85 59.1818 373.554 59.1818V69.1818ZM378.702 68.027C380.742 66.9659 382.492 64.9204 382.553 62.0132L372.555 61.8049C372.566 61.261 372.736 60.6184 373.136 60.0376C373.51 59.4954 373.923 59.2409 374.088 59.1548L378.702 68.027ZM382.553 61.7955C382.493 59.1525 381.012 57.1705 379.141 56.0395L373.967 64.5968C373.767 64.476 373.388 64.1946 373.059 63.6722C372.714 63.1232 372.567 62.5314 372.555 62.0227L382.553 61.7955ZM379.186 56.0669C377.731 55.1666 375.977 54.7161 374.429 54.4408L372.679 64.2864C373.208 64.3805 373.575 64.4736 373.811 64.5487C374.063 64.6289 374.062 64.6559 373.922 64.5695L379.186 56.0669ZM374.423 54.4397L368.241 53.3488L366.503 63.1966L372.685 64.2876L374.423 54.4397ZM368.232 53.3471C365.238 52.8248 363.666 51.937 362.877 51.1614L355.867 58.2932C358.624 61.0024 362.385 62.4782 366.513 63.1983L368.232 53.3471ZM362.877 51.1614C362.172 50.4684 361.727 49.5733 361.736 48.0276L351.736 47.9724C351.714 51.9115 353.027 55.5013 355.867 58.2932L362.877 51.1614ZM361.736 47.9688C361.726 46.4862 362.097 45.5569 362.615 44.8808L354.675 38.801C352.617 41.4885 351.715 44.6653 351.736 48.0312L361.736 47.9688ZM362.611 44.886C363.229 44.0807 364.231 43.2931 365.927 42.6745L362.5 33.28C359.377 34.4191 356.667 36.2072 354.679 38.7958L362.611 44.886ZM365.943 42.6685C367.681 42.0276 369.939 41.6364 372.827 41.6364V31.6364C369.078 31.6364 365.594 32.1391 362.483 33.2861L365.943 42.6685ZM372.827 41.6364C377.239 41.6364 380.065 42.5571 381.84 43.8328L387.677 35.7127C383.633 32.8066 378.505 31.6364 372.827 31.6364V41.6364ZM381.85 43.84C383.478 45.0039 384.286 46.4502 384.376 48.6593L394.368 48.2498C394.155 43.0649 391.887 38.7234 387.667 35.7055L381.85 43.84Z" fill="#FFF6E9" mask="url(#path-1-outside-1_30_7)"/>
</svg>
